<?xml version="1.0" encoding="UTF-8" standalone="no"?>
<!DOCTYPE svg PUBLIC "-//W3C//DTD SVG 1.1//EN" "http://www.w3.org/Graphics/SVG/1.1/DTD/svg11.dtd">
<svg width="100%" height="100%" viewBox="0 0 600 879" version="1.1" xmlns="http://www.w3.org/2000/svg" xmlns:xlink="http://www.w3.org/1999/xlink" xml:space="preserve" xmlns:serif="http://www.serif.com/" style="fill-rule:evenodd;clip-rule:evenodd;stroke-linecap:round;stroke-linejoin:round;stroke-miterlimit:1.5;">
    <g transform="matrix(3.125,0,0,6.70992,-412.5,-798.481)">
        <path d="M324,119.447C324,119.2 323.57,119 323.04,119C309.062,119 146.938,119 132.96,119C132.43,119 132,119.2 132,119.447C132,127.492 132,241.508 132,249.553C132,249.8 132.43,250 132.96,250C146.938,250 309.062,250 323.04,250C323.57,250 324,249.8 324,249.553C324,241.508 324,127.492 324,119.447Z" style="fill:white;"/>
    </g>
    <g transform="matrix(1,0,0,1,30,436)">
        <g transform="matrix(3.19527,0,0,2.52844,-63.9053,-2696.96)">
            <path d="M189,1110.55C189,1110.23 188.901,1109.93 188.725,1109.71C188.549,1109.49 188.31,1109.36 188.061,1109.36L20.939,1109.36C20.69,1109.36 20.451,1109.49 20.275,1109.71C20.099,1109.93 20,1110.23 20,1110.55L20,1139.81C20,1140.13 20.099,1140.43 20.275,1140.65C20.451,1140.88 20.69,1141 20.939,1141L188.061,1141C188.31,1141 188.549,1140.88 188.725,1140.65C188.901,1140.43 189,1140.13 189,1139.81L189,1110.55Z" style="fill:rgb(240,241,245);"/>
        </g>
        <g transform="matrix(1,0,0,1,-40.3785,-243)">
            <text x="55.378px" y="376.014px" style="font-family:'ArialMT', 'Arial', sans-serif;font-size:14px;fill:rgb(133,146,173);">Общие впе<tspan x="127.641px 134.935px 142.414px 148.518px 156.687px " y="376.014px 376.014px 376.014px 376.014px 376.014px ">чатле</tspan>ния</text>
        </g>
    </g>
    <g transform="matrix(1,0,0,1,-107,-37)">
        <text x="177px" y="88.447px" style="font-family:'ArialMT', 'Arial', sans-serif;font-size:18px;fill:rgb(20,24,31);">Написа<tspan x="238.427px 246.671px " y="88.447px 88.447px ">ть</tspan> о<tspan x="270.665px 278.909px " y="88.447px 88.447px ">тз</tspan>ыв</text>
    </g>
    <g transform="matrix(0.885246,0,0,1,16.7213,-225)">
        <path d="M15,305L625,305" style="fill:none;stroke:url(#_Linear1);stroke-width:1.06px;"/>
    </g>
    <g id="x" transform="matrix(1.25,0,0,1.25,555,45)">
        <g transform="matrix(1,0,0,1,-12,-12)">
            <path d="M18,6L6,18" style="fill:none;fill-rule:nonzero;stroke:rgb(20,24,31);stroke-width:1px;stroke-miterlimit:4;"/>
            <path d="M6,6L18,18" style="fill:none;fill-rule:nonzero;stroke:rgb(20,24,31);stroke-width:1px;stroke-miterlimit:4;"/>
        </g>
    </g>
    <g transform="matrix(2.11765,0,0,1.25,-12.3529,-1286.7)">
        <g>
            <g transform="matrix(1.50888,0,0,1.01138,-10.1775,-12.6223)">
                <path d="M189,1111.73C189,1111.1 188.901,1110.5 188.725,1110.06C188.549,1109.61 188.31,1109.36 188.061,1109.36C175.177,1109.36 33.823,1109.36 20.939,1109.36C20.69,1109.36 20.451,1109.61 20.275,1110.06C20.099,1110.5 20,1111.1 20,1111.73C20,1117.6 20,1132.76 20,1138.63C20,1139.26 20.099,1139.86 20.275,1140.31C20.451,1140.75 20.69,1141 20.939,1141C33.823,1141 175.177,1141 188.061,1141C188.31,1141 188.549,1140.75 188.725,1140.31C188.901,1139.86 189,1139.26 189,1138.63C189,1132.76 189,1117.6 189,1111.73Z" style="fill:rgb(240,241,245);"/>
            </g>
            <g transform="matrix(0.472222,0,0,0.8,-5.5,1089.36)">
                <text x="69px" y="50.014px" style="font-family:'ArialMT', 'Arial', sans-serif;font-size:14px;fill:rgb(133,146,173);">Ваше имя</text>
            </g>
        </g>
    </g>
    <g transform="matrix(1,0,0,1,-195,62)">
        <text x="225px" y="110.014px" style="font-family:'ArialMT', 'Arial', sans-serif;font-size:14px;fill:rgb(20,24,31);">Как вы оц<tspan x="287.993px 295.779px " y="110.014px 110.014px ">ен</tspan>ив<tspan x="318.611px 326.397px 333.719px 339.974px 347.76px " y="110.014px 110.014px 110.014px 110.014px 110.014px ">аете </tspan>маг<tspan x="373.859px 381.488px 387.907px " y="110.014px 110.014px 110.014px ">ази</tspan>н MASTER MOBILE?</text>
    </g>
    <g transform="matrix(2.84211,0,0,1,-55.2632,344)">
        <g transform="matrix(1.57025,0,0,1.48148,-17.1074,-223.889)">
            <path d="M151,467.025C151,466.488 150.929,465.973 150.803,465.593C150.677,465.213 150.506,465 150.328,465C141.103,465 39.897,465 30.672,465C30.494,465 30.323,465.213 30.197,465.593C30.071,465.973 30,466.488 30,467.025C30,472.035 30,484.965 30,489.975C30,490.512 30.071,491.027 30.197,491.407C30.323,491.787 30.494,492 30.672,492C39.897,492 141.103,492 150.328,492C150.506,492 150.677,491.787 150.803,491.407C150.929,491.027 151,490.512 151,489.975C151,484.965 151,472.035 151,467.025Z" style="fill:rgb(255,0,64);"/>
        </g>
        <g transform="matrix(0.351852,0,0,1,1.5,316)">
            <text x="295.441px" y="174.014px" style="font-family:'ArialMT', 'Arial', sans-serif;font-size:14px;fill:white;">Отправить о<tspan x="376.228px 382.64px " y="174.014px 174.014px ">тз</tspan>ыв</text>
        </g>
    </g>
    <g id="review-star-cursor.svg" transform="matrix(1.25,0,0,1.25,45,45)">
        <g transform="matrix(1,0,0,1,-12,-12)">
            <rect x="0" y="0" width="24" height="24" style="fill:none;fill-rule:nonzero;"/>
            <path d="M22,12L22,6C22,3.806 20.194,2 18,2L6,2C3.806,2 2,3.806 2,6L2,13C2,15.194 3.806,17 6,17L8,17" style="fill:none;fill-rule:nonzero;stroke:rgb(20,24,31);stroke-width:1px;stroke-miterlimit:4;"/>
            <path d="M21.685,21L21.984,18.6C22.117,17.54 21.377,16.551 20.322,16.379L18,16L18,13.5C18,12.677 17.323,12 16.5,12C15.677,12 15,12.677 15,13.5L15,18L14.415,17.414C14.149,17.149 13.789,17 13.414,17C13.039,17 12.679,17.149 12.414,17.414C11.939,17.889 11.865,18.64 12.238,19.199L13.438,21" style="fill:none;fill-rule:nonzero;stroke:rgb(20,24,31);stroke-width:1px;stroke-miterlimit:4;"/>
            <path d="M8.715,6.488C8.862,6.19 9.167,6 9.5,6C9.833,6 10.138,6.19 10.285,6.488L10.73,7.39C10.857,7.648 11.104,7.828 11.389,7.869L12.385,8.014C12.813,8.076 13.134,8.447 13.134,8.88C13.134,9.116 13.038,9.342 12.87,9.506L12.149,10.209C11.943,10.41 11.849,10.7 11.897,10.984L12.067,11.975C12.076,12.024 12.08,12.073 12.08,12.123C12.08,12.603 11.685,12.998 11.205,12.998C11.063,12.998 10.924,12.964 10.798,12.898L9.907,12.429C9.652,12.296 9.348,12.296 9.093,12.429L8.202,12.898C8.076,12.964 7.937,12.998 7.795,12.998C7.315,12.998 6.92,12.603 6.92,12.123C6.92,12.073 6.924,12.024 6.933,11.975L7.103,10.984C7.151,10.7 7.057,10.41 6.851,10.209L6.13,9.506C5.962,9.342 5.866,9.116 5.866,8.88C5.866,8.447 6.187,8.076 6.615,8.014L7.611,7.869C7.896,7.828 8.143,7.648 8.27,7.39L8.715,6.488Z" style="fill:none;fill-rule:nonzero;stroke:rgb(20,24,31);stroke-width:1px;stroke-miterlimit:4;"/>
        </g>
    </g>
    <g transform="matrix(1,0,0,1,0,-524)">
        <g transform="matrix(1,0,0,1,189.622,357)">
            <text x="50.378px" y="366.72px" style="font-family:'ArialMT', 'Arial', sans-serif;font-size:14px;fill:rgb(13,21,38);">Сервис</text>
            <text x="102.209px" y="366.72px" style="font-family:'ArialMT', 'Arial', sans-serif;font-size:14px;fill:rgb(255,0,64);">(об<tspan x="122.368px 129.949px 136.368px 143.846px 150.101px 157.422px 165.591px " y="366.72px 366.72px 366.72px 366.72px 366.72px 366.72px 366.72px ">язателе</tspan>н к оц<tspan x="210.661px 218.447px 226.178px 232.46px 240.247px " y="366.72px 366.72px 366.72px 366.72px 366.72px ">енке)</tspan></text>
            <text x="50.378px" y="385.309px" style="font-family:'ArialMT', 'Arial', sans-serif;font-size:12px;fill:rgb(133,146,173);">б<tspan x="57.117px 63.527px 69.029px " y="385.309px 385.309px 385.309px ">ез </tspan>оц<tspan x="85.775px 92.449px " y="385.309px 385.309px ">ен</tspan>ки</text>
        </g>
        <g transform="matrix(1,0,0,1,-10.3785,357)">
        </g>
        <g transform="matrix(1,0,0,1,29.6215,357)">
        </g>
        <g transform="matrix(1,0,0,1,69.6215,357)">
        </g>
        <g transform="matrix(1,0,0,1,109.622,357)">
        </g>
        <g transform="matrix(1,0,0,1,149.622,357)">
        </g>
        <g transform="matrix(2.0202,0,0,2,-30.6061,-708)">
            <path d="M129,709.5C129,708.672 128.335,708 127.515,708C116.133,708 42.867,708 31.485,708C30.665,708 30,708.672 30,709.5C30,713.211 30,722.789 30,726.5C30,727.328 30.665,728 31.485,728C42.867,728 116.133,728 127.515,728C128.335,728 129,727.328 129,726.5C129,722.789 129,713.211 129,709.5ZM128.505,709.5L128.505,726.5C128.505,727.052 128.062,727.5 127.515,727.5C127.515,727.5 31.485,727.5 31.485,727.5C30.938,727.5 30.495,727.052 30.495,726.5C30.495,726.5 30.495,709.5 30.495,709.5C30.495,708.948 30.938,708.5 31.485,708.5C42.867,708.5 116.133,708.5 127.515,708.5C128.062,708.5 128.505,708.948 128.505,709.5Z" style="fill:rgb(224,228,235);"/>
        </g>
        <g transform="matrix(1.21212,0,0,2,33.6364,-708)">
            <path d="M129,708L30,708L30,728L129,728L129,708ZM128.175,708.5L128.175,727.5C128.175,727.5 30.825,727.5 30.825,727.5C30.825,727.5 30.825,708.5 30.825,708.5L128.175,708.5Z" style="fill:rgb(224,228,235);"/>
        </g>
        <g transform="matrix(0.40404,0,0,2,97.8788,-708)">
            <path d="M129,708L30,708L30,728L129,728L129,708ZM126.525,708.5L126.525,727.5C126.525,727.5 32.475,727.5 32.475,727.5C32.475,727.5 32.475,708.5 32.475,708.5L126.525,708.5Z" style="fill:rgb(224,228,235);"/>
        </g>
    </g>
    <g transform="matrix(1,0,0,1,0,-474)">
        <g transform="matrix(1,0,0,1,189.622,357)">
            <text x="50.378px" y="366.72px" style="font-family:'ArialMT', 'Arial', sans-serif;font-size:14px;fill:rgb(13,21,38);">Асс<tspan x="73.874px 81.66px 89.138px 95.55px " y="366.72px 366.72px 366.72px 366.72px ">орти</tspan>мент</text>
            <text x="50.378px" y="385.309px" style="font-family:'ArialMT', 'Arial', sans-serif;font-size:12px;fill:rgb(133,146,173);">б<tspan x="57.117px 63.527px 69.029px " y="385.309px 385.309px 385.309px ">ез </tspan>оц<tspan x="85.775px 92.449px " y="385.309px 385.309px ">ен</tspan>ки</text>
        </g>
        <g transform="matrix(1,0,0,1,-10.3785,357)">
        </g>
        <g transform="matrix(1,0,0,1,29.6215,357)">
        </g>
        <g transform="matrix(1,0,0,1,69.6215,357)">
        </g>
        <g transform="matrix(1,0,0,1,109.622,357)">
        </g>
        <g transform="matrix(1,0,0,1,149.622,357)">
        </g>
        <g transform="matrix(2.0202,0,0,2,-30.6061,-708)">
            <path d="M129,709.5C129,708.672 128.335,708 127.515,708C116.133,708 42.867,708 31.485,708C30.665,708 30,708.672 30,709.5C30,713.211 30,722.789 30,726.5C30,727.328 30.665,728 31.485,728C42.867,728 116.133,728 127.515,728C128.335,728 129,727.328 129,726.5C129,722.789 129,713.211 129,709.5ZM128.505,709.5L128.505,726.5C128.505,727.052 128.062,727.5 127.515,727.5C127.515,727.5 31.485,727.5 31.485,727.5C30.938,727.5 30.495,727.052 30.495,726.5C30.495,726.5 30.495,709.5 30.495,709.5C30.495,708.948 30.938,708.5 31.485,708.5C42.867,708.5 116.133,708.5 127.515,708.5C128.062,708.5 128.505,708.948 128.505,709.5Z" style="fill:rgb(224,228,235);"/>
        </g>
        <g transform="matrix(1.21212,0,0,2,33.6364,-708)">
            <path d="M129,708L30,708L30,728L129,728L129,708ZM128.175,708.5L128.175,727.5C128.175,727.5 30.825,727.5 30.825,727.5C30.825,727.5 30.825,708.5 30.825,708.5L128.175,708.5Z" style="fill:rgb(224,228,235);"/>
        </g>
        <g transform="matrix(0.40404,0,0,2,97.8788,-708)">
            <path d="M129,708L30,708L30,728L129,728L129,708ZM126.525,708.5L126.525,727.5C126.525,727.5 32.475,727.5 32.475,727.5C32.475,727.5 32.475,708.5 32.475,708.5L126.525,708.5Z" style="fill:rgb(224,228,235);"/>
        </g>
    </g>
    <g transform="matrix(1,0,0,1,7.48384e-06,-424)">
        <g transform="matrix(1,0,0,1,189.622,357)">
            <text x="50.378px" y="366.72px" style="font-family:'ArialMT', 'Arial', sans-serif;font-size:14px;fill:rgb(13,21,38);">Ск<tspan x="66.771px 74.557px " y="366.72px 366.72px ">ор</tspan>ость дост<tspan x="143.935px 151.721px " y="366.72px 366.72px ">ав</tspan>ки</text>
            <text x="50.378px" y="385.309px" style="font-family:'ArialMT', 'Arial', sans-serif;font-size:12px;fill:rgb(133,146,173);">б<tspan x="57.117px 63.527px 69.029px " y="385.309px 385.309px 385.309px ">ез </tspan>оц<tspan x="85.775px 92.449px " y="385.309px 385.309px ">ен</tspan>ки</text>
        </g>
        <g transform="matrix(1,0,0,1,-10.3785,357)">
        </g>
        <g transform="matrix(1,0,0,1,29.6215,357)">
        </g>
        <g transform="matrix(1,0,0,1,69.6215,357)">
        </g>
        <g transform="matrix(1,0,0,1,109.622,357)">
        </g>
        <g transform="matrix(1,0,0,1,149.622,357)">
        </g>
        <g transform="matrix(2.0202,0,0,2,-30.6061,-708)">
            <path d="M129,709.5C129,708.672 128.335,708 127.515,708C116.133,708 42.867,708 31.485,708C30.665,708 30,708.672 30,709.5C30,713.211 30,722.789 30,726.5C30,727.328 30.665,728 31.485,728C42.867,728 116.133,728 127.515,728C128.335,728 129,727.328 129,726.5C129,722.789 129,713.211 129,709.5ZM128.505,709.5L128.505,726.5C128.505,727.052 128.062,727.5 127.515,727.5C116.133,727.5 42.867,727.5 31.485,727.5C30.938,727.5 30.495,727.052 30.495,726.5C30.495,726.5 30.495,709.5 30.495,709.5C30.495,708.948 30.938,708.5 31.485,708.5C31.485,708.5 127.515,708.5 127.515,708.5C128.062,708.5 128.505,708.948 128.505,709.5Z" style="fill:rgb(224,228,235);"/>
        </g>
        <g transform="matrix(1.21212,0,0,2,33.6364,-708)">
            <path d="M129,708L30,708L30,728L129,728L129,708ZM128.175,708.5L128.175,727.5C128.175,727.5 30.825,727.5 30.825,727.5C30.825,727.5 30.825,708.5 30.825,708.5L128.175,708.5Z" style="fill:rgb(224,228,235);"/>
        </g>
        <g transform="matrix(0.40404,0,0,2,97.8788,-708)">
            <path d="M129,708L30,708L30,728L129,728L129,708ZM126.525,708.5L126.525,727.5C126.525,727.5 32.475,727.5 32.475,727.5C32.475,727.5 32.475,708.5 32.475,708.5L126.525,708.5Z" style="fill:rgb(224,228,235);"/>
        </g>
    </g>
    <g transform="matrix(0.72973,0,0,1,30,236)">
        <g transform="matrix(4.3787,0,0,2.52844,-87.574,-2696.96)">
            <path d="M189,1110.55C189,1110.23 188.901,1109.93 188.725,1109.71C188.549,1109.49 188.31,1109.36 188.061,1109.36L20.939,1109.36C20.69,1109.36 20.451,1109.49 20.275,1109.71C20.099,1109.93 20,1110.23 20,1110.55L20,1139.81C20,1140.13 20.099,1140.43 20.275,1140.65C20.451,1140.88 20.69,1141 20.939,1141L188.061,1141C188.31,1141 188.549,1140.88 188.725,1140.65C188.901,1140.43 189,1140.13 189,1139.81L189,1110.55Z" style="fill:rgb(240,241,245);"/>
        </g>
        <g transform="matrix(1.37037,0,0,1,-25.3334,-243)">
            <text x="50.378px" y="376.014px" style="font-family:'ArialMT', 'Arial', sans-serif;font-size:14px;fill:rgb(133,146,173);">Д<tspan x="60.017px 67.803px 74.803px 81.058px 88.844px " y="376.014px 376.014px 376.014px 376.014px 376.014px ">остои</tspan>нств<tspan x="125.088px " y="376.014px ">а</tspan></text>
        </g>
        <g transform="matrix(1.37037,0,0,1,5.66445e-11,108)">
            <text x="14.358px" y="26.014px" style="font-family:'ArialMT', 'Arial', sans-serif;font-size:14px;fill:rgb(0,178,119);">+</text>
        </g>
    </g>
    <g transform="matrix(1,0,0,1,30,336)">
        <g transform="matrix(3.19527,0,0,2.52844,-63.9053,-2696.96)">
            <path d="M189,1110.55C189,1110.23 188.901,1109.93 188.725,1109.71C188.549,1109.49 188.31,1109.36 188.061,1109.36L20.939,1109.36C20.69,1109.36 20.451,1109.49 20.275,1109.71C20.099,1109.93 20,1110.23 20,1110.55L20,1139.81C20,1140.13 20.099,1140.43 20.275,1140.65C20.451,1140.88 20.69,1141 20.939,1141L188.061,1141C188.31,1141 188.549,1140.88 188.725,1140.65C188.901,1140.43 189,1140.13 189,1139.81L189,1110.55Z" style="fill:rgb(240,241,245);"/>
        </g>
        <g transform="matrix(1,0,0,1,-10.3785,-243)">
            <text x="50.378px" y="376.014px" style="font-family:'ArialMT', 'Arial', sans-serif;font-size:14px;fill:rgb(133,146,173);">Не<tspan x="67.967px 76.136px " y="376.014px 376.014px ">до</tspan>ст<tspan x="97.177px 104.656px 111.068px " y="376.014px 376.014px 376.014px ">атк</tspan>и</text>
        </g>
        <g transform="matrix(1,0,0,1,5.66445e-11,108)">
            <text x="18.279px" y="25.9px" style="font-family:'SymbolMT', 'Symbol', serif;font-size:14px;fill:rgb(255,0,64);"></text>
        </g>
    </g>
    <g transform="matrix(1,0,0,1.25,10,-742.7)">
        <g transform="matrix(3.19527,1.72212e-15,0,1.01138,-43.9053,-12.6223)">
            <path d="M189,1111.73C189,1111.1 188.901,1110.5 188.725,1110.06C188.549,1109.61 188.31,1109.36 188.061,1109.36C175.177,1109.36 33.823,1109.36 20.939,1109.36C20.69,1109.36 20.451,1109.61 20.275,1110.06C20.099,1110.5 20,1111.1 20,1111.73C20,1117.6 20,1132.76 20,1138.63C20,1139.26 20.099,1139.86 20.275,1140.31C20.451,1140.75 20.69,1141 20.939,1141C33.823,1141 175.177,1141 188.061,1141C188.31,1141 188.549,1140.75 188.725,1140.31C188.901,1139.86 189,1139.26 189,1138.63C189,1132.76 189,1117.6 189,1111.73Z" style="fill:rgb(240,241,245);"/>
        </g>
        <g transform="matrix(1,0,0,0.8,-34,1089.36)">
            <text x="69px" y="50.014px" style="font-family:'ArialMT', 'Arial', sans-serif;font-size:14px;fill:rgb(133,146,173);">В к<tspan x="88.66px 96.446px 102.729px 110.515px " y="50.014px 50.014px 50.014px 50.014px ">аком</tspan> г<tspan x="128.828px 136.614px 144.4px 151.879px 160.048px " y="50.014px 50.014px 50.014px 50.014px 50.014px ">ороде</tspan> вы с<tspan x="200.271px 208.057px 215.337px 223.123px " y="50.014px 50.014px 50.014px 50.014px ">овер</tspan>шали пок<tspan x="291.455px 298.455px 306.036px 312.318px 319.318px " y="50.014px 50.014px 50.014px 50.014px 50.014px ">упку?</tspan></text>
            <text x="327.104px" y="50.014px" style="font-family:'ArialMT', 'Arial', sans-serif;font-size:14px;fill:rgb(255,0,64);">*</text>
        </g>
    </g>
    <g transform="matrix(1,0,0,1,19.6215,393)">
        <text x="50.378px" y="361.028px" style="font-family:'ArialMT', 'Arial', sans-serif;font-size:14px;fill:rgb(20,24,31);">Отзыв б<tspan x="103.2px 109.735px 117.904px 125.225px 131.637px " y="361.028px 361.028px 361.028px 361.028px 361.028px ">удет </tspan>виден в<tspan x="185.641px 192.641px " y="361.028px 361.028px ">се</tspan>м после про<tspan x="279.15px " y="361.028px ">х</tspan>ож<tspan x="302.987px " y="361.028px ">д</tspan>ения мо<tspan x="363.068px 371.237px " y="361.028px 361.028px ">де</tspan>рации. Отправ<tspan x="473.605px 481.774px " y="361.028px 361.028px ">ля</tspan>я о<tspan x="508.304px 514.716px " y="361.028px 361.028px ">тз</tspan>ыв,</text>
        <text x="50.378px" y="382.715px" style="font-family:'ArialMT', 'Arial', sans-serif;font-size:14px;fill:rgb(20,24,31);">вы с<tspan x="78.925px 86.711px 91.51px 99.679px " y="382.715px 382.715px 382.715px 382.715px ">огла</tspan>шае<tspan x="133.804px 140.059px 147.845px " y="382.715px 382.715px 382.715px ">тес</tspan>ь с у<tspan x="183.761px 190.761px 199.087px 206.874px " y="382.715px 382.715px 382.715px 382.715px ">слов</tspan>иями</text>
        <text x="251.047px" y="382.715px" style="font-family:'ArialMT', 'Arial', sans-serif;font-size:14px;fill:rgb(255,0,64);">по<tspan x="266.107px 274.276px 281.57px 287.832px 295.618px 302.898px 310.376px 316.631px 323.953px 332.122px " y="382.715px 382.715px 382.715px 382.715px 382.715px 382.715px 382.715px 382.715px 382.715px 382.715px ">льзователь</tspan>ск<tspan x="352.698px 360.484px 365.283px 373.069px 376.959px 384.116px 391.902px 396.701px 404.87px " y="382.715px 382.715px 382.715px 382.715px 382.715px 382.715px 382.715px 382.715px 382.715px ">ого согла</tspan>шения</text>
        <text x="454.806px" y="382.715px" style="font-family:'ArialMT', 'Arial', sans-serif;font-size:14px;fill:rgb(20,24,31);">.</text>
    </g>
    <g transform="matrix(1,0,0,1,0,-457)">
        <path d="M30,1171L570,1171" style="fill:none;stroke:rgb(224,228,235);stroke-width:1px;stroke-linecap:butt;"/>
    </g>
    <g id="warning.svg" transform="matrix(1.25,0,0,1.25,45,759)">
        <g transform="matrix(1,0,0,1,-12,-12)">
            <g>
                <path d="M12,3C16.971,3 21,7.029 21,12C21,16.971 16.971,21 12,21C7.029,21 3,16.971 3,12C3,7.029 7.029,3 12,3Z" style="fill:none;fill-rule:nonzero;stroke:rgb(194,201,214);stroke-width:1px;stroke-miterlimit:4;"/>
                <path d="M12,12.5L12,7.5" style="fill:none;fill-rule:nonzero;stroke:rgb(194,201,214);stroke-width:1px;stroke-miterlimit:4;"/>
                <path d="M11.999,16C11.861,16 11.749,16.112 11.75,16.25C11.75,16.388 11.862,16.5 12,16.5C12.138,16.5 12.25,16.388 12.25,16.25C12.25,16.112 12.138,16 11.999,16" style="fill:none;fill-rule:nonzero;stroke:rgb(194,201,214);stroke-width:1px;stroke-miterlimit:4;"/>
            </g>
        </g>
    </g>
    <defs>
        <linearGradient id="_Linear1" x1="0" y1="0" x2="1" y2="0" gradientUnits="userSpaceOnUse" gradientTransform="matrix(-610,-8.96735e-10,1.14334e-08,-7777.5,625,305)"><stop offset="0" style="stop-color:white;stop-opacity:0"/><stop offset="0.09" style="stop-color:rgb(241,243,246);stop-opacity:0.44"/><stop offset="0.19" style="stop-color:rgb(229,232,238);stop-opacity:0.84"/><stop offset="0.5" style="stop-color:rgb(224,228,235);stop-opacity:1"/><stop offset="1" style="stop-color:rgb(224,228,235);stop-opacity:1"/></linearGradient>
    </defs>
</svg>
