<svg width="36" height="37" viewBox="0 0 36 37" fill="none" xmlns="http://www.w3.org/2000/svg">
<path d="M28.8 29.7868C29.7548 29.7868 30.6705 30.1661 31.3456 30.8412C32.0207 31.5164 32.4 32.432 32.4 33.3868C32.4 34.3416 32.0207 35.2573 31.3456 35.9324C30.6705 36.6075 29.7548 36.9868 28.8 36.9868C27.8452 36.9868 26.9295 36.6075 26.2544 35.9324C25.5793 35.2573 25.2 34.3416 25.2 33.3868C25.2 31.3888 26.802 29.7868 28.8 29.7868ZM0 0.986816H5.886L7.578 4.58682H34.2C34.6774 4.58682 35.1352 4.77646 35.4728 5.11402C35.8104 5.45159 36 5.90943 36 6.38682C36 6.69282 35.91 6.99882 35.784 7.28682L29.34 18.9328C28.728 20.0308 27.54 20.7868 26.19 20.7868H12.78L11.16 23.7208L11.106 23.9368C11.106 24.0562 11.1534 24.1706 11.2378 24.255C11.3222 24.3394 11.4367 24.3868 11.556 24.3868H32.4V27.9868H10.8C9.84522 27.9868 8.92955 27.6075 8.25442 26.9324C7.57928 26.2573 7.2 25.3416 7.2 24.3868C7.2 23.7568 7.362 23.1628 7.632 22.6588L10.08 18.2488L3.6 4.58682H0V0.986816ZM10.8 29.7868C11.7548 29.7868 12.6705 30.1661 13.3456 30.8412C14.0207 31.5164 14.4 32.432 14.4 33.3868C14.4 34.3416 14.0207 35.2573 13.3456 35.9324C12.6705 36.6075 11.7548 36.9868 10.8 36.9868C9.84522 36.9868 8.92955 36.6075 8.25442 35.9324C7.57928 35.2573 7.2 34.3416 7.2 33.3868C7.2 31.3888 8.802 29.7868 10.8 29.7868ZM27 17.1868L32.004 8.18682H9.252L13.5 17.1868H27Z" fill="#1C2120"/>
</svg>
