<svg width="50" height="51" viewBox="0 0 50 51" fill="none" xmlns="http://www.w3.org/2000/svg">
<path d="M22.0264 35.4754L22.0265 35.4757C22.0909 35.8639 21.9985 36.2617 21.7697 36.5818C21.5409 36.9019 21.1944 37.1181 20.8063 37.1828L20.8059 37.1829C19.2713 37.4372 18.0737 37.815 17.304 38.2214L17.2971 38.225L17.29 38.2284C17.058 38.3392 16.8451 38.4857 16.6589 38.6623C16.6943 38.6981 16.7326 38.731 16.7735 38.7607L16.7798 38.7653L16.7859 38.7701C17.0982 39.0162 17.6425 39.3046 18.4452 39.5701L18.446 39.5703C20.0395 40.1008 22.3344 40.456 24.9378 40.456C27.5414 40.456 29.8361 40.1029 31.4291 39.5705L31.4294 39.5704C32.2337 39.3023 32.7777 39.0159 33.0896 38.7701L33.0963 38.7648L33.1033 38.7598C33.1443 38.7303 33.1827 38.6976 33.2182 38.6619C33.0316 38.4854 32.8183 38.3392 32.5861 38.2287L32.5789 38.2253L32.5719 38.2216C31.8005 37.8154 30.6067 37.438 29.0748 37.1837C28.8801 37.1565 28.6928 37.0909 28.5236 36.9907C28.3527 36.8894 28.2038 36.7548 28.0859 36.5949C27.9679 36.435 27.8832 36.2531 27.8369 36.0598C27.7905 35.8666 27.7834 35.6661 27.8161 35.47C27.8487 35.274 27.9203 35.0866 28.0267 34.9188C28.1331 34.7509 28.2721 34.6062 28.4354 34.4931C28.5988 34.38 28.7832 34.3009 28.9778 34.2604C29.1701 34.2203 29.3685 34.2188 29.5614 34.2561C31.267 34.5378 32.8015 34.9866 33.9553 35.5943L33.9554 35.5944C34.9786 36.1337 36.2661 37.1073 36.2661 38.6591C36.2661 39.7632 35.5916 40.5769 34.9281 41.1025L34.9269 41.1034C34.2439 41.6404 33.3445 42.0627 32.3674 42.3876M22.0264 35.4754L32.2442 42.017M22.0264 35.4754C21.9617 35.0873 21.7455 34.7407 21.4254 34.512C21.1054 34.2832 20.7077 34.1909 20.3197 34.2551M22.0264 35.4754L17.6313 42.017M32.3674 42.3876L32.2442 42.017M32.3674 42.3876C32.3676 42.3876 32.3677 42.3876 32.3678 42.3875L32.2442 42.017M32.3674 42.3876C30.3971 43.0451 27.77 43.4248 24.9378 43.4248C22.1055 43.4248 19.4784 43.0451 17.5081 42.3876M32.2442 42.017C30.3235 42.6579 27.74 43.0342 24.9378 43.0342C22.1355 43.0342 19.552 42.6579 17.6313 42.017M17.5081 42.3876L17.6313 42.017M17.5081 42.3876C17.5079 42.3876 17.5078 42.3876 17.5077 42.3875L17.6313 42.017M17.5081 42.3876C16.5311 42.0627 15.6316 41.6404 14.9486 41.1034L14.9474 41.1025C14.284 40.5769 13.6094 39.7632 13.6094 38.6591C13.6094 37.1096 14.8967 36.1338 15.9201 35.5944L15.9202 35.5943C17.0753 34.9859 18.6119 34.5368 20.3197 34.2551M20.3197 34.2551L20.3833 34.6405L20.3194 34.2552C20.3195 34.2552 20.3196 34.2551 20.3197 34.2551ZM22.5758 11.0814C23.3246 10.7712 24.1272 10.6116 24.9378 10.6116C26.5747 10.6116 28.1446 11.2618 29.302 12.4193C30.4595 13.5768 31.1098 15.1467 31.1098 16.7836C31.1098 18.4205 30.4595 19.9904 29.302 21.1478C28.1446 22.3053 26.5747 22.9556 24.9378 22.9556C24.1272 22.9556 23.3246 22.7959 22.5758 22.4858C21.827 22.1756 21.1466 21.721 20.5735 21.1478C20.0004 20.5747 19.5457 19.8943 19.2356 19.1455C18.9254 18.3967 18.7657 17.5941 18.7657 16.7836C18.7657 15.9731 18.9254 15.1705 19.2356 14.4216C19.5457 13.6728 20.0004 12.9924 20.5735 12.4193C21.1466 11.8462 21.827 11.3915 22.5758 11.0814ZM17.2592 11.8251C16.3048 13.3028 15.7971 15.0244 15.7969 16.7835C15.7956 19.0109 16.6077 21.1598 18.0803 22.8306C19.4768 24.4151 21.3763 25.4643 23.4533 25.8061V37.5653C23.4533 37.959 23.6097 38.3366 23.8881 38.6149C24.1665 38.8933 24.5441 39.0497 24.9378 39.0497C25.3314 39.0497 25.709 38.8933 25.9874 38.6149C26.2658 38.3366 26.4222 37.959 26.4222 37.5653V25.8039C28.04 25.5377 29.5587 24.8407 30.8173 23.7833C32.1642 22.6519 33.1561 21.1558 33.6738 19.4746C34.1915 17.7934 34.2131 15.9985 33.736 14.3053C33.2589 12.6122 32.3034 11.0926 30.9842 9.92904C29.6649 8.76545 28.0379 8.00724 26.2984 7.74539C24.5589 7.48354 22.7808 7.72917 21.1775 8.45282C19.5741 9.17647 18.2136 10.3474 17.2592 11.8251Z" fill="white" stroke="white" stroke-width="0.781268"/>
</svg>
