<svg width="34" height="35" viewBox="0 0 34 35" fill="none" xmlns="http://www.w3.org/2000/svg">
<path d="M0 17.6821C0 20.0294 1.90276 21.9321 4.24999 21.9321H12.75V30.4321C12.75 32.7793 14.6528 34.6821 17.0001 34.6821C19.3472 34.6821 21.25 32.7793 21.25 30.4321L21.2501 21.9321H29.75C32.0972 21.9321 34 20.0293 34 17.6821C34 15.335 32.0972 13.4322 29.75 13.4321H21.25V4.93215C21.25 2.58492 19.3472 0.682129 17 0.682129C14.6528 0.682129 12.75 2.58489 12.75 4.93212V13.4321L4.25002 13.4321C1.90279 13.4321 0 15.3349 0 17.6821Z" fill="#1D2221"/>
</svg>
