<svg width="71" height="103" viewBox="0 0 71 103" fill="none" xmlns="http://www.w3.org/2000/svg">
<path opacity="0.5" d="M30.1885 -12.2485C42.4651 -12.2485 52.3085 -9.18921 59.7188 -3.07055C67.2396 2.93883 71 11.789 71 23.48C71 33.095 67.682 40.8526 61.046 46.7527C54.5206 52.6529 45.949 55.7122 35.3314 55.9307L34.336 67.5671H1.81951L0.824105 32.8219H14.7597C21.2852 32.8219 26.2622 32.1117 29.6908 30.6913C33.23 29.2709 34.9996 26.9764 34.9996 23.8078C34.9996 21.7318 34.4466 20.1475 33.3406 19.0549C32.3452 17.853 30.9627 17.2521 29.1931 17.2521C26.9811 17.2521 25.3221 17.9623 24.2161 19.3827C23.2207 20.6938 22.723 22.442 22.723 24.6273H-11.9502C-12.282 17.853 -10.9548 11.6798 -7.96862 6.10743C-4.87181 0.535083 -0.115998 -3.89001 6.29882 -7.16787C12.7136 -10.555 20.6769 -12.2485 30.1885 -12.2485ZM18.5755 115.751C12.1606 115.751 7.01772 114.058 3.14671 110.671C-0.724299 107.284 -2.6598 103.022 -2.6598 97.8872C-2.6598 92.6426 -0.724299 88.3268 3.14671 84.9397C7.01772 81.4433 12.1606 79.6951 18.5755 79.6951C24.8797 79.6951 29.9673 81.4433 33.8383 84.9397C37.7093 88.3268 39.6448 92.6426 39.6448 97.8872C39.6448 103.022 37.7093 107.284 33.8383 110.671C29.9673 114.058 24.8797 115.751 18.5755 115.751Z" fill="#EA79ED"/>
</svg>
