<svg width="219" height="240" viewBox="0 0 219 240" fill="none" xmlns="http://www.w3.org/2000/svg">
<path fill-rule="evenodd" clip-rule="evenodd" d="M102.542 70.5717C107.766 65.3648 116.234 65.3648 121.458 70.5717L161.583 110.572C166.806 115.779 166.806 124.221 161.583 129.428L121.458 169.428C116.234 174.635 107.766 174.635 102.542 169.428C97.3192 164.221 97.3192 155.779 102.542 150.572L119.835 133.333H18.375C10.9882 133.333 5 127.364 5 120C5 112.636 10.9882 106.667 18.375 106.667H119.835L102.542 89.4279C97.3192 84.2209 97.3192 75.7787 102.542 70.5717Z" stroke="#EA79ED" stroke-width="10" stroke-linecap="round" stroke-linejoin="round"/>
<path d="M58.5 13.3333C58.5 5.96954 64.4882 0 71.875 0H205.625C213.012 0 219 5.96954 219 13.3333V200C219 210.609 214.773 220.783 207.248 228.284C199.723 235.786 189.517 240 178.875 240H71.875C64.4882 240 58.5 234.03 58.5 226.667C58.5 219.303 64.4882 213.333 71.875 213.333H178.875C182.422 213.333 185.824 211.929 188.333 209.428C190.841 206.928 192.25 203.536 192.25 200V26.6667H71.875C64.4882 26.6667 58.5 20.6971 58.5 13.3333Z" fill="#EA79ED"/>
</svg>
