<svg width="250" height="157" viewBox="0 0 250 157" fill="none" xmlns="http://www.w3.org/2000/svg">
<path d="M228.372 1.58252H250L210.222 57.392V107.454H192.527V57.392L152.749 1.58252H174.377L201.45 39.3938L228.372 1.58252Z" fill="#EAFC70"/>
<path d="M104.246 78.7173C82.6178 78.7173 64.9221 61.0216 64.9221 39.3936C64.9221 17.7655 82.6178 0.0698242 104.246 0.0698242C125.874 0.0698242 143.57 17.7655 143.57 39.3936C143.57 61.0216 125.874 78.7173 104.246 78.7173ZM104.246 17.6143C92.1463 17.6143 82.4666 27.294 82.4666 39.3936C82.4666 51.4932 92.1463 61.1729 104.246 61.1729C116.345 61.1729 126.025 51.4932 126.025 39.3936C126.025 27.294 116.345 17.6143 104.246 17.6143ZM138.73 89.9095V107.454H68.8545V89.9095H138.73Z" fill="#EA79ED"/>
<path d="M7.56226 1.43164H44.3148V76.6005C44.3148 107.455 13.3096 107.455 13.3096 107.455H0V89.7588H13.3096C26.6192 89.7588 26.6192 76.6005 26.6192 76.6005V17.6149H7.56226V1.43164Z" fill="#5BD6D2"/>
<path d="M8.59186 143.837V146.062C8.59186 147.418 8.2568 148.464 7.58669 149.197C6.93252 149.915 5.95926 150.274 4.66689 150.274C3.37452 150.274 2.39328 149.915 1.72316 149.197C1.069 148.464 0.741916 147.418 0.741916 146.062V137.351C0.741916 135.995 1.069 134.958 1.72316 134.24C2.39328 133.506 3.37452 133.139 4.66689 133.139C5.95926 133.139 6.93252 133.506 7.58669 134.24C8.2568 134.958 8.59186 135.995 8.59186 137.351V138.978H6.10285V137.183C6.10285 136.577 5.97521 136.154 5.71993 135.915C5.4806 135.66 5.15352 135.532 4.73869 135.532C4.32385 135.532 3.98879 135.66 3.73351 135.915C3.49418 136.154 3.37452 136.577 3.37452 137.183V146.23C3.37452 146.836 3.49418 147.259 3.73351 147.498C3.98879 147.738 4.32385 147.857 4.73869 147.857C5.15352 147.857 5.4806 147.738 5.71993 147.498C5.97521 147.259 6.10285 146.836 6.10285 146.23V143.837H8.59186ZM18.7092 150.083H16.0527L15.598 147.044H12.3671L11.9123 150.083H9.49514L12.1756 133.33H16.0288L18.7092 150.083ZM12.7021 144.77H15.239L13.9706 136.298L12.7021 144.77ZM22.2807 137.949V150.083H19.9113V133.33H23.214L25.9184 143.358V133.33H28.2638V150.083H25.5594L22.2807 137.949ZM32.4941 137.949V150.083H30.1248V133.33H33.4275L36.1319 143.358V133.33H38.4773V150.083H35.7729L32.4941 137.949ZM48.8823 150.083H46.2258L45.771 147.044H42.5401L42.0854 150.083H39.6682L42.3486 133.33H46.2018L48.8823 150.083ZM42.8752 144.77H45.412L44.1436 136.298L42.8752 144.77ZM54.0811 133.33C55.4533 133.33 56.4425 133.649 57.0488 134.287C57.671 134.926 57.9822 135.891 57.9822 137.183V137.782C57.9822 138.643 57.8465 139.353 57.5753 139.912C57.3041 140.47 56.8733 140.885 56.2829 141.156C57.0009 141.427 57.5035 141.874 57.7907 142.496C58.0938 143.103 58.2454 143.853 58.2454 144.746V146.11C58.2454 147.403 57.9104 148.392 57.2402 149.078C56.5701 149.748 55.5729 150.083 54.2486 150.083H50.1083V133.33H54.0811ZM52.7409 142.544V147.69H54.2486C54.6954 147.69 55.0305 147.57 55.2538 147.331C55.4932 147.091 55.6128 146.661 55.6128 146.038V144.578C55.6128 143.797 55.4772 143.262 55.206 142.975C54.9507 142.688 54.5199 142.544 53.9136 142.544H52.7409ZM52.7409 135.723V140.151H53.77C54.2646 140.151 54.6475 140.023 54.9188 139.768C55.206 139.513 55.3496 139.05 55.3496 138.38V137.447C55.3496 136.84 55.2379 136.401 55.0145 136.13C54.8071 135.859 54.472 135.723 54.0093 135.723H52.7409ZM59.831 133.33H62.4636V150.083H59.831V133.33ZM64.0534 137.351C64.0534 135.995 64.3725 134.958 65.0107 134.24C65.6649 133.506 66.6382 133.139 67.9305 133.139C69.2229 133.139 70.1882 133.506 70.8264 134.24C71.4805 134.958 71.8076 135.995 71.8076 137.351V137.877H69.3186V137.183C69.3186 136.577 69.199 136.154 68.9596 135.915C68.7363 135.66 68.4172 135.532 68.0023 135.532C67.5875 135.532 67.2604 135.66 67.0211 135.915C66.7977 136.154 66.686 136.577 66.686 137.183C66.686 137.758 66.8137 138.268 67.0689 138.715C67.3242 139.146 67.6433 139.561 68.0263 139.959C68.4092 140.342 68.816 140.733 69.2468 141.132C69.6936 141.515 70.1084 141.938 70.4913 142.401C70.8743 142.863 71.1934 143.39 71.4486 143.98C71.7039 144.57 71.8316 145.265 71.8316 146.062C71.8316 147.418 71.4965 148.464 70.8264 149.197C70.1722 149.915 69.199 150.274 67.9066 150.274C66.6142 150.274 65.633 149.915 64.9629 149.197C64.3087 148.464 63.9816 147.418 63.9816 146.062V145.033H66.4706V146.23C66.4706 146.836 66.5903 147.259 66.8296 147.498C67.0849 147.738 67.42 147.857 67.8348 147.857C68.2496 147.857 68.5767 147.738 68.816 147.498C69.0713 147.259 69.199 146.836 69.199 146.23C69.199 145.655 69.0713 145.153 68.816 144.722C68.5608 144.275 68.2416 143.86 67.8587 143.478C67.4758 143.079 67.061 142.688 66.6142 142.305C66.1834 141.906 65.7766 141.475 65.3937 141.012C65.0107 140.55 64.6916 140.023 64.4363 139.433C64.1811 138.843 64.0534 138.149 64.0534 137.351ZM77.0799 144.746C77.0799 143.884 77.2156 143.158 77.4868 142.568C77.774 141.962 78.2447 141.515 78.8988 141.228C77.6862 140.717 77.0799 139.569 77.0799 137.782V137.47C77.0799 136.114 77.399 135.085 78.0373 134.383C78.6914 133.681 79.6806 133.33 81.0049 133.33H84.0204V135.723H81.0528C80.6379 135.723 80.3109 135.843 80.0715 136.082C79.8322 136.322 79.7125 136.744 79.7125 137.351V138.38C79.7125 139.05 79.8482 139.513 80.1194 139.768C80.4066 140.023 80.7975 140.151 81.2921 140.151H82.4409V138.284H85.0735V140.151H85.7675V142.544H85.0735V148.049C85.0735 148.464 85.0894 148.831 85.1214 149.15C85.1533 149.453 85.233 149.764 85.3607 150.083H82.6802C82.6164 149.908 82.5685 149.74 82.5366 149.58C82.5047 149.405 82.4728 149.134 82.4409 148.767C81.9782 149.772 81.1645 150.274 79.9997 150.274C79.0265 150.274 78.2925 149.947 77.7979 149.293C77.3193 148.639 77.0799 147.69 77.0799 146.445V144.746ZM79.7125 146.23C79.7125 146.836 79.8322 147.267 80.0715 147.522C80.3268 147.762 80.6619 147.881 81.0767 147.881C81.4756 147.881 81.7947 147.77 82.034 147.546C82.2734 147.323 82.409 146.948 82.4409 146.421V142.544H81.4357C80.8294 142.544 80.3906 142.704 80.1194 143.023C79.8482 143.342 79.7125 143.892 79.7125 144.674V146.23ZM96.5214 141.156L95.5641 150.083H91.9502L90.0835 133.33H92.6443L94.0563 146.541L95.3247 133.33H97.8616L99.1779 146.637L100.542 133.33H102.84L100.973 150.083H97.4787L96.5214 141.156ZM106.8 140.39H110.414V142.784H106.8V147.69H111.347V150.083H104.167V133.33H111.347V135.723H106.8V140.39ZM112.979 133.33H115.611V147.69H119.943V150.083H112.979V133.33ZM121.089 133.33H123.721V147.69H128.053V150.083H121.089V133.33ZM131.544 137.949V150.083H129.175V133.33H132.477L135.182 143.358V133.33H137.527V150.083H134.823L131.544 137.949ZM142.045 140.39H145.659V142.784H142.045V147.69H146.592V150.083H139.412V133.33H146.592V135.723H142.045V140.39ZM147.888 137.351C147.888 135.995 148.207 134.958 148.846 134.24C149.5 133.506 150.473 133.139 151.765 133.139C153.058 133.139 154.023 133.506 154.661 134.24C155.315 134.958 155.642 135.995 155.642 137.351V137.877H153.153V137.183C153.153 136.577 153.034 136.154 152.794 135.915C152.571 135.66 152.252 135.532 151.837 135.532C151.422 135.532 151.095 135.66 150.856 135.915C150.632 136.154 150.521 136.577 150.521 137.183C150.521 137.758 150.648 138.268 150.904 138.715C151.159 139.146 151.478 139.561 151.861 139.959C152.244 140.342 152.651 140.733 153.082 141.132C153.528 141.515 153.943 141.938 154.326 142.401C154.709 142.863 155.028 143.39 155.283 143.98C155.539 144.57 155.666 145.265 155.666 146.062C155.666 147.418 155.331 148.464 154.661 149.197C154.007 149.915 153.034 150.274 151.741 150.274C150.449 150.274 149.468 149.915 148.798 149.197C148.143 148.464 147.816 147.418 147.816 146.062V145.033H150.305V146.23C150.305 146.836 150.425 147.259 150.664 147.498C150.92 147.738 151.255 147.857 151.67 147.857C152.084 147.857 152.411 147.738 152.651 147.498C152.906 147.259 153.034 146.836 153.034 146.23C153.034 145.655 152.906 145.153 152.651 144.722C152.396 144.275 152.076 143.86 151.694 143.478C151.311 143.079 150.896 142.688 150.449 142.305C150.018 141.906 149.611 141.475 149.228 141.012C148.846 140.55 148.526 140.023 148.271 139.433C148.016 138.843 147.888 138.149 147.888 137.351Z" fill="#EAFC70"/>
</svg>
