<svg width="108" height="46" viewBox="0 0 108 46" fill="none" xmlns="http://www.w3.org/2000/svg">
<path d="M10.8364 35.0063C11.775 35.6073 12.549 36.4428 13.0756 37.4302H96.6136C102.536 37.4302 107.336 32.6294 107.336 26.7074C107.336 20.7853 102.536 15.9845 96.6136 15.9845H20.1535C20.0987 16.8089 19.9489 17.6283 19.7044 18.4258C19.0998 20.398 17.9415 22.153 16.3685 23.4804C14.7956 24.8077 12.8747 25.651 10.8364 25.9089V35.0063Z" fill="#5BD6D2"/>
<path d="M30.5204 24.4085L28.4684 30.9845H27.3404L25.7564 25.7645L24.1724 30.9845H23.0444L20.9804 24.4085H22.0964L23.6084 29.9285L25.2404 24.4085H26.3564L27.9524 29.9405L29.4404 24.4085H30.5204ZM37.6042 27.4445C37.6042 27.6525 37.5922 27.8725 37.5682 28.1045H32.3122C32.3522 28.7525 32.5722 29.2605 32.9722 29.6285C33.3802 29.9885 33.8722 30.1685 34.4482 30.1685C34.9202 30.1685 35.3122 30.0605 35.6242 29.8445C35.9442 29.6205 36.1682 29.3245 36.2962 28.9565H37.4722C37.2962 29.5885 36.9442 30.1045 36.4162 30.5045C35.8882 30.8965 35.2322 31.0925 34.4482 31.0925C33.8242 31.0925 33.2642 30.9525 32.7682 30.6725C32.2802 30.3925 31.8962 29.9965 31.6162 29.4845C31.3362 28.9645 31.1962 28.3645 31.1962 27.6845C31.1962 27.0045 31.3322 26.4085 31.6042 25.8965C31.8762 25.3845 32.2562 24.9925 32.7442 24.7205C33.2402 24.4405 33.8082 24.3005 34.4482 24.3005C35.0722 24.3005 35.6242 24.4365 36.1042 24.7085C36.5842 24.9805 36.9522 25.3565 37.2082 25.8365C37.4722 26.3085 37.6042 26.8445 37.6042 27.4445ZM36.4762 27.2165C36.4762 26.8005 36.3842 26.4445 36.2002 26.1485C36.0162 25.8445 35.7642 25.6165 35.4442 25.4645C35.1322 25.3045 34.7842 25.2245 34.4002 25.2245C33.8482 25.2245 33.3762 25.4005 32.9842 25.7525C32.6002 26.1045 32.3802 26.5925 32.3242 27.2165H36.4762ZM41.8368 27.6725C41.8368 27.0005 41.9728 26.4125 42.2448 25.9085C42.5168 25.3965 42.8888 25.0005 43.3608 24.7205C43.8408 24.4405 44.3728 24.3005 44.9568 24.3005C45.5328 24.3005 46.0328 24.4245 46.4568 24.6725C46.8808 24.9205 47.1968 25.2325 47.4048 25.6085V24.4085H48.5088V30.9845H47.4048V29.7605C47.1888 30.1445 46.8648 30.4645 46.4328 30.7205C46.0088 30.9685 45.5128 31.0925 44.9448 31.0925C44.3608 31.0925 43.8328 30.9485 43.3608 30.6605C42.8888 30.3725 42.5168 29.9685 42.2448 29.4485C41.9728 28.9285 41.8368 28.3365 41.8368 27.6725ZM47.4048 27.6845C47.4048 27.1885 47.3048 26.7565 47.1048 26.3885C46.9048 26.0205 46.6328 25.7405 46.2888 25.5485C45.9528 25.3485 45.5808 25.2485 45.1728 25.2485C44.7648 25.2485 44.3928 25.3445 44.0568 25.5365C43.7208 25.7285 43.4528 26.0085 43.2528 26.3765C43.0528 26.7445 42.9528 27.1765 42.9528 27.6725C42.9528 28.1765 43.0528 28.6165 43.2528 28.9925C43.4528 29.3605 43.7208 29.6445 44.0568 29.8445C44.3928 30.0365 44.7648 30.1325 45.1728 30.1325C45.5808 30.1325 45.9528 30.0365 46.2888 29.8445C46.6328 29.6445 46.9048 29.3605 47.1048 28.9925C47.3048 28.6165 47.4048 28.1805 47.4048 27.6845ZM51.4462 25.4765C51.6382 25.1005 51.9102 24.8085 52.2622 24.6005C52.6222 24.3925 53.0582 24.2885 53.5702 24.2885V25.4165H53.2822C52.0582 25.4165 51.4462 26.0805 51.4462 27.4085V30.9845H50.3542V24.4085H51.4462V25.4765ZM60.8307 27.4445C60.8307 27.6525 60.8187 27.8725 60.7947 28.1045H55.5387C55.5787 28.7525 55.7987 29.2605 56.1987 29.6285C56.6067 29.9885 57.0987 30.1685 57.6747 30.1685C58.1467 30.1685 58.5387 30.0605 58.8507 29.8445C59.1707 29.6205 59.3947 29.3245 59.5227 28.9565H60.6987C60.5227 29.5885 60.1707 30.1045 59.6427 30.5045C59.1147 30.8965 58.4587 31.0925 57.6747 31.0925C57.0507 31.0925 56.4907 30.9525 55.9947 30.6725C55.5067 30.3925 55.1227 29.9965 54.8427 29.4845C54.5627 28.9645 54.4227 28.3645 54.4227 27.6845C54.4227 27.0045 54.5587 26.4085 54.8307 25.8965C55.1027 25.3845 55.4827 24.9925 55.9707 24.7205C56.4667 24.4405 57.0347 24.3005 57.6747 24.3005C58.2987 24.3005 58.8507 24.4365 59.3307 24.7085C59.8107 24.9805 60.1787 25.3565 60.4347 25.8365C60.6987 26.3085 60.8307 26.8445 60.8307 27.4445ZM59.7027 27.2165C59.7027 26.8005 59.6107 26.4445 59.4267 26.1485C59.2427 25.8445 58.9907 25.6165 58.6707 25.4645C58.3587 25.3045 58.0107 25.2245 57.6267 25.2245C57.0747 25.2245 56.6027 25.4005 56.2107 25.7525C55.8267 26.1045 55.6067 26.5925 55.5507 27.2165H59.7027ZM68.7354 24.2885C69.2314 24.2885 69.6794 24.3965 70.0794 24.6125C70.4794 24.8205 70.7914 25.1365 71.0154 25.5605C71.2474 25.9845 71.3634 26.5005 71.3634 27.1085V30.9845H70.2834V27.2645C70.2834 26.6085 70.1194 26.1085 69.7914 25.7645C69.4634 25.4125 69.0154 25.2365 68.4474 25.2365C67.8714 25.2365 67.4114 25.4165 67.0674 25.7765C66.7314 26.1365 66.5634 26.6605 66.5634 27.3485V30.9845H65.4714V22.1045H66.5634V25.3445C66.7794 25.0085 67.0754 24.7485 67.4514 24.5645C67.8354 24.3805 68.2634 24.2885 68.7354 24.2885ZM79.1471 27.4445C79.1471 27.6525 79.1351 27.8725 79.1111 28.1045H73.8551C73.8951 28.7525 74.1151 29.2605 74.5151 29.6285C74.9231 29.9885 75.4151 30.1685 75.9911 30.1685C76.4631 30.1685 76.8551 30.0605 77.1671 29.8445C77.4871 29.6205 77.7111 29.3245 77.8391 28.9565H79.0151C78.8391 29.5885 78.4871 30.1045 77.9591 30.5045C77.4311 30.8965 76.7751 31.0925 75.9911 31.0925C75.3671 31.0925 74.8071 30.9525 74.3111 30.6725C73.8231 30.3925 73.4391 29.9965 73.1591 29.4845C72.8791 28.9645 72.7391 28.3645 72.7391 27.6845C72.7391 27.0045 72.8751 26.4085 73.1471 25.8965C73.4191 25.3845 73.7991 24.9925 74.2871 24.7205C74.7831 24.4405 75.3511 24.3005 75.9911 24.3005C76.6151 24.3005 77.1671 24.4365 77.6471 24.7085C78.1271 24.9805 78.4951 25.3565 78.7511 25.8365C79.0151 26.3085 79.1471 26.8445 79.1471 27.4445ZM78.0191 27.2165C78.0191 26.8005 77.9271 26.4445 77.7431 26.1485C77.5591 25.8445 77.3071 25.6165 76.9871 25.4645C76.6751 25.3045 76.3271 25.2245 75.9431 25.2245C75.3911 25.2245 74.9191 25.4005 74.5271 25.7525C74.1431 26.1045 73.9231 26.5925 73.8671 27.2165H78.0191ZM81.6806 25.4765C81.8726 25.1005 82.1446 24.8085 82.4966 24.6005C82.8566 24.3925 83.2926 24.2885 83.8046 24.2885V25.4165H83.5166C82.2926 25.4165 81.6806 26.0805 81.6806 27.4085V30.9845H80.5886V24.4085H81.6806V25.4765ZM91.0651 27.4445C91.0651 27.6525 91.0531 27.8725 91.0291 28.1045H85.7731C85.8131 28.7525 86.0331 29.2605 86.4331 29.6285C86.8411 29.9885 87.3331 30.1685 87.9091 30.1685C88.3811 30.1685 88.7731 30.0605 89.0851 29.8445C89.4051 29.6205 89.6291 29.3245 89.7571 28.9565H90.9331C90.7571 29.5885 90.4051 30.1045 89.8771 30.5045C89.3491 30.8965 88.6931 31.0925 87.9091 31.0925C87.2851 31.0925 86.7251 30.9525 86.2291 30.6725C85.7411 30.3925 85.3571 29.9965 85.0771 29.4845C84.7971 28.9645 84.6571 28.3645 84.6571 27.6845C84.6571 27.0045 84.7931 26.4085 85.0651 25.8965C85.3371 25.3845 85.7171 24.9925 86.2051 24.7205C86.7011 24.4405 87.2691 24.3005 87.9091 24.3005C88.5331 24.3005 89.0851 24.4365 89.5651 24.7085C90.0451 24.9805 90.4131 25.3565 90.6691 25.8365C90.9331 26.3085 91.0651 26.8445 91.0651 27.4445ZM89.9371 27.2165C89.9371 26.8005 89.8451 26.4445 89.6611 26.1485C89.4771 25.8445 89.2251 25.6165 88.9051 25.4645C88.5931 25.3045 88.2451 25.2245 87.8611 25.2245C87.3091 25.2245 86.8371 25.4005 86.4451 25.7525C86.0611 26.1045 85.8411 26.5925 85.7851 27.2165H89.9371Z" fill="white"/>
<path d="M9.13552 5.29347C10.1071 4.88921 11.1484 4.68116 12.2 4.68116C14.3237 4.68116 16.3607 5.52855 17.8629 7.03747C19.3651 8.54646 20.2094 10.5934 20.2094 12.7282C20.2094 14.863 19.3651 16.91 17.8629 18.419C16.3607 19.9279 14.3237 20.7753 12.2 20.7753C11.1484 20.7753 10.1071 20.5672 9.13552 20.163C8.16391 19.7587 7.28096 19.1661 6.53714 18.419C5.79332 17.6718 5.2032 16.7847 4.80055 15.8083C4.3979 14.8318 4.19064 13.7852 4.19064 12.7282C4.19064 11.6712 4.3979 10.6246 4.80055 9.64817C5.2032 8.67173 5.79332 7.78463 6.53714 7.03747C7.28096 6.29032 8.16391 5.69773 9.13552 5.29347ZM2.46313 6.41423C1.25321 8.29596 0.609613 10.4882 0.609368 12.728L0.609368 12.7282C0.60774 15.5643 1.63705 18.3007 3.50418 20.4286C5.29534 22.4699 7.73943 23.814 10.4094 24.2332V39.4476C10.4094 39.9236 10.5976 40.3805 10.9332 40.7176C11.2689 41.0548 11.7245 41.2445 12.2 41.2445C12.6755 41.2445 13.1311 41.0548 13.4668 40.7176C13.8024 40.3805 13.9906 39.9236 13.9906 39.4476V24.2304C16.0767 23.9028 18.0363 23.0087 19.656 21.6419C21.3638 20.2008 22.6212 18.2955 23.2775 16.1548C23.9337 14.014 23.9611 11.7286 23.3564 9.57264C22.7516 7.41667 21.5403 5.48152 19.8675 3.99953C18.1948 2.51753 16.1316 1.55167 13.9256 1.21811C11.7195 0.884535 9.46457 1.19747 7.43132 2.11926C5.39809 3.04104 3.67309 4.53243 2.46313 6.41423Z" fill="#5BD6D2" stroke="#5BD6D2" stroke-width="0.781268" stroke-linecap="round"/>
<circle cx="7.2002" cy="40.8539" r="4.5" fill="#5BD6D2"/>
</svg>
