<?xml version="1.0" encoding="utf-8"?><svg viewBox="0 0 502.66 502.66" xmlns="http://www.w3.org/2000/svg" xmlns:xlink="http://www.w3.org/1999/xlink"><style>:root>svg{display:none}:root>svg:target{display:block}</style><svg viewBox="0 0 29 48" id="arrow-right" xmlns="http://www.w3.org/2000/svg"><path d="m4 4.305 20 20-20 20"/></svg><svg viewBox="0 0 30 21" id="bottomarrow" xmlns="http://www.w3.org/2000/svg"><path d="m26 4.487-11 11-11-11"/></svg><svg viewBox="0 0 36 37" id="cart" xmlns="http://www.w3.org/2000/svg"><path d="M28.8 29.787a3.6 3.6 0 1 1-3.6 3.6c0-1.998 1.602-3.6 3.6-3.6ZM0 .987h5.886l1.692 3.6H34.2a1.8 1.8 0 0 1 1.8 1.8c0 .306-.09.612-.216.9L29.34 18.933a3.619 3.619 0 0 1-3.15 1.854H12.78l-1.62 2.934-.054.216a.45.45 0 0 0 .45.45H32.4v3.6H10.8a3.6 3.6 0 0 1-3.6-3.6c0-.63.162-1.224.432-1.728l2.448-4.41L3.6 4.587H0v-3.6Zm10.8 28.8a3.6 3.6 0 1 1-3.6 3.6c0-1.998 1.602-3.6 3.6-3.6Zm16.2-12.6 5.004-9H9.252l4.248 9H27Z"/></svg><svg viewBox="0 0 14 26" id="facebook" xmlns="http://www.w3.org/2000/svg"><path d="m12.512 14.139.694-4.525h-4.34V6.678c0-1.238.606-2.444 2.55-2.444h1.974V.382S11.599.076 9.886.076c-3.575 0-5.912 2.167-5.912 6.09v3.448H0v4.525h3.974v10.937h4.891V14.14h3.647Z"/></svg><svg viewBox="0 0 47 37" id="gal" xmlns="http://www.w3.org/2000/svg"><path d="M39.089 1.83a4.162 4.162 0 0 1 5.938 5.827L22.883 35.352a4.164 4.164 0 0 1-5.994.11L2.204 20.778a4.163 4.163 0 1 1 5.883-5.883l11.621 11.617 19.276-24.56.105-.122Z"/></svg><svg viewBox="0 0 502.664 502.664" xml:space="preserve" id="icon" xmlns="http://www.w3.org/2000/svg"><path d="M153.821 358.226 0 274.337v-46.463l153.821-83.414v54.574L46.636 250.523l107.185 53.431v54.272zm26.273 29.358L282.103 115.08h32.227L212.084 387.584h-31.99zm168.749-29.358v-54.272l107.164-52.999-107.164-52.59v-53.927l153.821 83.522v46.183l-153.821 84.083z"/></svg><svg viewBox="0 0 22 22" id="inst" xmlns="http://www.w3.org/2000/svg"><path d="M10.946 5.407a5.601 5.601 0 0 0-5.61 5.61 5.601 5.601 0 0 0 5.61 5.61 5.602 5.602 0 0 0 5.61-5.61 5.601 5.601 0 0 0-5.61-5.61Zm0 9.258a3.654 3.654 0 0 1-3.647-3.648 3.65 3.65 0 0 1 3.647-3.647 3.65 3.65 0 0 1 3.648 3.647 3.654 3.654 0 0 1-3.648 3.648Zm7.149-9.488c0 .728-.586 1.31-1.31 1.31a1.309 1.309 0 1 1 1.309-1.309Zm3.715 1.329c-.083-1.753-.483-3.306-1.767-4.585C18.763.64 17.21.24 15.458.153 13.65.051 8.236.051 6.429.153c-1.748.083-3.3.483-4.585 1.763C.56 3.196.164 4.748.077 6.5c-.103 1.806-.103 7.221 0 9.028.083 1.753.483 3.306 1.767 4.585 1.285 1.28 2.833 1.68 4.585 1.768 1.807.102 7.222.102 9.029 0 1.753-.083 3.305-.484 4.585-1.768 1.279-1.28 1.68-2.832 1.767-4.585.103-1.807.103-7.217 0-9.023Zm-2.334 10.962a3.692 3.692 0 0 1-2.08 2.08c-1.44.57-4.858.44-6.45.44-1.592 0-5.015.126-6.45-.44a3.693 3.693 0 0 1-2.08-2.08c-.572-1.44-.44-4.859-.44-6.45 0-1.592-.127-5.015.44-6.45a3.693 3.693 0 0 1 2.08-2.08c1.44-.572 4.858-.44 6.45-.44 1.592 0 5.015-.127 6.45.44a3.692 3.692 0 0 1 2.08 2.08c.572 1.44.44 4.858.44 6.45 0 1.591.132 5.014-.44 6.45Z"/></svg><svg viewBox="0 0 50 51" id="location" xmlns="http://www.w3.org/2000/svg"><path d="M22.026 35.475a1.484 1.484 0 0 1-1.22 1.708c-1.535.254-2.732.632-3.502 1.038l-.007.004-.007.003a2.47 2.47 0 0 0-.631.434.928.928 0 0 0 .114.099l.007.004.006.005c.312.246.856.535 1.66.8 1.593.53 3.888.886 6.492.886 2.603 0 4.898-.353 6.491-.886.805-.268 1.349-.554 1.66-.8l.007-.005.007-.005a.918.918 0 0 0 .115-.098 2.455 2.455 0 0 0-.632-.433l-.007-.004-.007-.003c-.772-.407-1.965-.784-3.497-1.038a1.485 1.485 0 1 1 .486-2.928c1.706.282 3.24.73 4.394 1.338 1.024.54 2.311 1.513 2.311 3.065 0 1.104-.674 1.918-1.338 2.444h-.001c-.683.537-1.583.96-2.56 1.285m-10.34-6.913 10.217 6.542m-10.218-6.542a1.484 1.484 0 0 0-1.706-1.22m1.706 1.22-4.395 6.542m14.736.37-.123-.37m.123.37-.123-.37m.123.37c-1.97.658-4.597 1.038-7.43 1.038-2.832 0-5.459-.38-7.429-1.037m14.736-.371c-1.92.64-4.504 1.017-7.306 1.017-2.802 0-5.386-.376-7.307-1.017m-.123.37.123-.37m-.123.37.123-.37m-.123.37c-.977-.324-1.876-.747-2.56-1.284-.664-.526-1.339-1.34-1.339-2.444 0-1.55 1.288-2.525 2.311-3.065 1.155-.608 2.692-1.057 4.4-1.339m0 0 .063.386-.064-.386Zm2.256-23.174a6.171 6.171 0 1 1 4.723 11.404 6.171 6.171 0 0 1-4.723-11.404Zm-5.317.744a9.14 9.14 0 0 0 6.194 13.981v11.76a1.484 1.484 0 1 0 2.97 0V25.803a9.14 9.14 0 0 0-.125-18.059 9.14 9.14 0 0 0-9.039 4.08Z"/></svg><svg viewBox="0 0 34 10" id="minus" xmlns="http://www.w3.org/2000/svg"><path d="M0 4.682c0 2.485 1.903 4.5 4.25 4.5h25.5c2.347 0 4.25-2.015 4.25-4.5s-1.903-4.5-4.25-4.5H4.25C1.903.182 0 2.197 0 4.682Z"/></svg><svg viewBox="0 0 50 51" id="phone" xmlns="http://www.w3.org/2000/svg"><path d="m37.793 34.567-6.366-5.181-.016-.014a2.545 2.545 0 0 0-2.39-.41 1.275 1.275 0 0 0-.137.055l-4.593 2.185c-2.06-1.785-3.855-4.867-4.38-7.513l4.21-2.94c.04-.03.08-.06.119-.095a2.544 2.544 0 0 0 .822-2.259.1.1 0 0 1 .005-.018l-1.31-8.12a2.544 2.544 0 0 0-2.16-2.146 8.946 8.946 0 0 0-9.814 6.57c-3.268 12.195 3.996 24.777 16.191 28.044a8.946 8.946 0 0 0 10.597-5.214 2.544 2.544 0 0 0-.778-2.944Zm-9.16 5.7A20.376 20.376 0 0 1 14.24 15.34a6.393 6.393 0 0 1 7.003-4.709.099.099 0 0 0-.005.019l1.29 8.083-4.192 2.95a.971.971 0 0 0-.12.094 2.545 2.545 0 0 0-.8 2.37c.63 3.22 2.735 6.834 5.24 8.995a2.546 2.546 0 0 0 2.465.473.965.965 0 0 0 .137-.057l4.588-2.183 6.352 5.169.017.004a6.393 6.393 0 0 1-7.582 3.72Z"/></svg><svg viewBox="0 0 34 35" id="plus" xmlns="http://www.w3.org/2000/svg"><path d="M0 17.682a4.25 4.25 0 0 0 4.25 4.25h8.5v8.5a4.25 4.25 0 0 0 8.5 0v-8.5h8.5a4.25 4.25 0 0 0 0-8.5h-8.5v-8.5a4.25 4.25 0 0 0-8.5 0v8.5h-8.5A4.25 4.25 0 0 0 0 17.682Z"/></svg><svg viewBox="0 0 19 17" id="req" xmlns="http://www.w3.org/2000/svg"><path d="m15.266 1.769 2.873 5.188-4.76 1.543 4.76 1.458-3.13 5.444-3.73-3.687 1.2 5.017H6.52l1.2-5.017-3.644 3.73-3.215-5.53L5.62 8.37.947 7l2.872-5.187L7.763 5.37 6.434.268h6.088L11.28 5.37l3.987-3.601Z"/></svg><svg viewBox="0 0 24 24" xml:space="preserve" id="review-star-cursor" xmlns="http://www.w3.org/2000/svg"><path d="M0 0h24v24H0z"/><path d="M22 12V6c0-2.194-1.806-4-4-4H6C3.806 2 2 3.806 2 6v7c0 2.194 1.806 4 4 4h2"/><path d="m21.685 21 .299-2.4a2.007 2.007 0 0 0-1.662-2.221L18 16v-2.5c0-.823-.677-1.5-1.5-1.5s-1.5.677-1.5 1.5V18l-.585-.586a1.419 1.419 0 0 0-2.001 0 1.418 1.418 0 0 0-.176 1.785l1.2 1.801M8.715 6.488a.877.877 0 0 1 1.57 0l.445.902a.875.875 0 0 0 .659.479l.996.145a.876.876 0 0 1 .485 1.492l-.721.703a.879.879 0 0 0-.252.775l.17.991a.88.88 0 0 1-1.269.923l-.891-.469a.88.88 0 0 0-.814 0l-.891.469a.875.875 0 0 1-1.269-.923l.17-.991a.879.879 0 0 0-.252-.775l-.721-.703a.876.876 0 0 1 .485-1.492l.996-.145a.875.875 0 0 0 .659-.479l.445-.902Z"/></svg><svg viewBox="0 0 13 17" id="sign" xmlns="http://www.w3.org/2000/svg"><path d="M1.704 16.47c-2.426-.955-1.894-3.584-.668-5.246C2.249 9.52 3.924 8.349 5.614 7.218a13.352 13.352 0 0 0 3.188-2.807c.381-.45 1.158-1.28.368-1.444-.804-.163-2.194.627-2.902.927-1.24.517-2.466 1.117-3.61 1.825L1.28 3.403C3.407 2 6.131.76 8.666.393c1.444-.219 2.97.08 3.46 1.648.436 1.349-.259 2.711-1.049 3.774C9.211 8.308 6.31 9.507 4.142 11.66c-.463.45-1.022.98-1.294 1.607-.286.6-.218.64.422.64 1.69 0 3.802-1.32 5.178-2.193l1.376 2.316c-2.085 1.281-5.573 3.284-8.12 2.44Z"/></svg><svg viewBox="0 0 29 48" id="sliderarrow" xmlns="http://www.w3.org/2000/svg"><path d="m4 4.251 20 20-20 20"/></svg><svg viewBox="0 0 42 41" id="star" xmlns="http://www.w3.org/2000/svg"><path d="m8.033 40.752 3.412-14.753L0 16.077l15.12-1.313L21 .852l5.88 13.912L42 16.077l-11.445 9.922 3.413 14.753L21 32.929 8.033 40.752Z"/></svg><svg viewBox="0 0 24 21" id="teleg" xmlns="http://www.w3.org/2000/svg"><path fill-rule="evenodd" clip-rule="evenodd" d="M21.301.202a1.774 1.774 0 0 1 2.438 1.922L21.058 18.39c-.26 1.569-1.982 2.469-3.42 1.687-1.204-.654-2.992-1.66-4.6-2.712-.804-.526-3.266-2.21-2.964-3.41.26-1.025 4.398-4.877 6.763-7.167.928-.9.505-1.418-.591-.59-2.722 2.054-7.092 5.179-8.536 6.058-1.275.776-1.94.908-2.734.776-1.45-.241-2.794-.615-3.89-1.07-1.483-.615-1.411-2.653-.002-3.247L21.301.202Z"/></svg><svg viewBox="0 0 25 21" id="twitter" xmlns="http://www.w3.org/2000/svg"><path d="M22.43 5.136c.016.223.016.445.016.667 0 6.773-5.155 14.578-14.578 14.578-2.903 0-5.6-.841-7.868-2.3.412.047.809.063 1.237.063 2.396 0 4.6-.809 6.361-2.189a5.133 5.133 0 0 1-4.79-3.553c.317.047.634.079.967.079.46 0 .92-.063 1.349-.175a5.124 5.124 0 0 1-4.109-5.028v-.063a5.16 5.16 0 0 0 2.316.65 5.12 5.12 0 0 1-2.284-4.267c0-.952.254-1.825.698-2.586A14.564 14.564 0 0 0 12.31 6.374a5.784 5.784 0 0 1-.127-1.174A5.121 5.121 0 0 1 17.306.076c1.476 0 2.808.619 3.744 1.618A10.088 10.088 0 0 0 24.302.457a5.11 5.11 0 0 1-2.253 2.823A10.271 10.271 0 0 0 25 2.487a11.016 11.016 0 0 1-2.569 2.65Z"/></svg></svg>