<svg width="176" height="184" viewBox="0 0 176 184" fill="none" xmlns="http://www.w3.org/2000/svg">
<path d="M93.6443 176.155H141.932C143.869 176.155 145.439 174.585 145.439 172.649V163.997H93.6443V176.155Z" fill="#C55BC7"/>
<path d="M93.6443 156.984H145.439V144.827H93.6443V156.984Z" fill="#C55BC7"/>
<path d="M93.6443 137.814H149.044C150.98 137.814 152.55 136.244 152.55 134.308V11.3572C152.55 9.42063 150.98 7.85083 149.044 7.85083H93.6443V137.814Z" fill="#C55BC7"/>
<path d="M93.6443 176.155H141.932C143.869 176.155 145.439 174.585 145.439 172.649V163.997H93.6443V176.155Z" fill="#EA79ED"/>
<path d="M93.6443 156.984H145.439V144.827H93.6443V156.984Z" fill="#EA79ED"/>
<path d="M93.6443 137.814H149.044C150.98 137.814 152.55 136.244 152.55 134.308V11.3572C152.55 9.42063 150.98 7.85083 149.044 7.85083H93.6443V137.814Z" fill="#EA79ED"/>
<path fill-rule="evenodd" clip-rule="evenodd" d="M93.6444 0.838135H46.983C37.1965 0.838135 29.9089 2.14917 25.3043 6.7493C20.6848 11.3642 19.6853 18.3764 19.6853 26.9162V148.381C16.0781 154.994 16.1681 163.362 19.2081 170.14C22.4478 177.362 29.2359 183.168 38.9607 183.168H93.6444V176.155H38.9607C32.4471 176.155 27.9115 172.408 25.6066 167.27C23.2405 161.994 23.4288 155.649 26.1822 151.15C28.3686 147.578 32.3677 144.827 38.9607 144.827H93.6444V137.814H38.9607C34.1005 137.814 29.9975 138.98 26.6979 140.988V26.9162C26.6979 18.388 27.8542 14.1144 30.2605 11.7104C32.3691 9.60397 36.1363 8.23916 43.4766 7.92186V126.217H50.4893V7.85081H93.6444V0.838135ZM93.6444 156.984H42.6712V163.997H93.6444V156.984Z" fill="#EA79ED"/>
</svg>
