<svg width="176" height="177" viewBox="0 0 176 177" fill="none" xmlns="http://www.w3.org/2000/svg">
<path fill-rule="evenodd" clip-rule="evenodd" d="M91.3092 0.838135H34.9932C31.5948 0.838135 28.4057 2.41686 26.4314 5.0766L0.796917 39.6105L0.144531 41.5692V166.04C0.144531 171.627 4.85406 176.155 10.6635 176.155H91.3092V169.412H10.6635C8.72704 169.412 7.1572 167.902 7.1572 166.04V44.9407H91.3092V0.838135ZM34.9932 7.58109C33.8604 7.58109 32.7974 8.10733 32.1393 8.99391L10.4614 38.1977H87.8029V7.58109H34.9932Z" fill="#EA79ED"/>
<path d="M91.3092 58.7151C91.3092 58.7151 76.9964 86.4152 86.309 108.167C76.033 91.2982 55.3895 85.838 55.3895 85.838C62.4083 103.461 71.5373 111.984 78.8314 116.29C65.9406 114.604 54.6096 120.863 54.6096 120.863C66.904 126.145 75.8954 126.323 81.8591 125.08C75.3908 130.185 73.0971 137.776 73.0971 137.776C82.1344 134.58 86.7218 130.318 89.0155 126.855V147.497H91.3092V58.7151Z" fill="#EA79ED"/>
<path d="M91.3093 169.412H171.955C173.892 169.412 175.461 167.902 175.461 166.04V44.9406H91.3093V58.715C91.3093 58.715 105.622 86.4151 96.3096 108.167C106.586 91.2982 127.229 85.838 127.229 85.838C120.21 103.461 111.081 111.984 103.787 116.29C116.678 114.604 128.009 120.863 128.009 120.863C115.715 126.145 106.723 126.323 100.759 125.08C107.228 130.185 109.522 137.776 109.522 137.776C100.484 134.58 95.8968 130.318 93.603 126.855V147.497H91.3093V169.412Z" fill="#EA79ED"/>
<path d="M150.479 8.99385C149.821 8.10735 148.758 7.58105 147.625 7.58105H94.8157V38.1976H172.157L150.479 8.99385Z" fill="#EA79ED"/>
</svg>
