<svg width="219" height="250" viewBox="0 0 219 250" fill="none" xmlns="http://www.w3.org/2000/svg">
<path fill-rule="evenodd" clip-rule="evenodd" d="M97.5424 75.5717C102.766 70.3648 111.234 70.3648 116.458 75.5717L156.583 115.572C161.806 120.779 161.806 129.221 156.583 134.428L116.458 174.428C111.234 179.635 102.766 179.635 97.5424 174.428C92.3192 169.221 92.3192 160.779 97.5424 155.572L114.835 138.333H13.375C5.98819 138.333 0 132.364 0 125C0 117.636 5.98819 111.667 13.375 111.667H114.835L97.5424 94.4279C92.3192 89.2209 92.3192 80.7787 97.5424 75.5717Z" fill="#5BD6D2"/>
<path d="M53.5 18.3333C53.5 10.9695 59.4882 5 66.875 5H200.625C208.012 5 214 10.9695 214 18.3333V205C214 215.609 209.773 225.783 202.248 233.284C194.723 240.786 184.517 245 173.875 245H66.875C59.4882 245 53.5 239.03 53.5 231.667C53.5 224.303 59.4882 218.333 66.875 218.333H173.875C177.422 218.333 180.824 216.929 183.333 214.428C185.841 211.928 187.25 208.536 187.25 205V31.6667H66.875C59.4882 31.6667 53.5 25.6971 53.5 18.3333Z" stroke="#5BD6D2" stroke-width="10" stroke-linecap="round" stroke-linejoin="round"/>
</svg>
