<svg width="132" height="83" viewBox="0 0 132 83" fill="none" xmlns="http://www.w3.org/2000/svg">
<path d="M120.545 0.827637H131.961L110.965 30.2864V56.7114H101.624V30.2864L80.6279 0.827637H92.0442L106.334 20.7861L120.545 0.827637Z" fill="#EAFC70"/>
<path d="M55.0256 41.543C43.6094 41.543 34.2688 32.2024 34.2688 20.7861C34.2688 9.36987 43.6094 0.0292969 55.0256 0.0292969C66.4419 0.0292969 75.7825 9.36987 75.7825 20.7861C75.7825 32.2024 66.4419 41.543 55.0256 41.543ZM55.0256 9.29004C48.6389 9.29004 43.5295 14.3994 43.5295 20.7861C43.5295 27.1729 48.6389 32.2822 55.0256 32.2822C61.4124 32.2822 66.5217 27.1729 66.5217 20.7861C66.5217 14.3994 61.4124 9.29004 55.0256 9.29004ZM73.2278 47.4507V56.7114H36.3445V47.4507H73.2278Z" fill="#EA79ED"/>
<path d="M3.9917 0.747803H23.3914V40.4253C23.3914 56.7114 7.02539 56.7114 7.02539 56.7114H0V47.3708H7.02539C14.0508 47.3708 14.0508 40.4253 14.0508 40.4253V9.29004H3.9917V0.747803Z" fill="#5BD6D2"/>
<path d="M3.22136 76.4143H4.53517V77.5891C4.53517 79.004 3.82773 79.8125 2.46339 79.8125C1.09905 79.8125 0.391616 79.004 0.391616 77.5891V72.9908C0.391616 71.5759 1.09905 70.7674 2.46339 70.7674C3.82773 70.7674 4.53517 71.5759 4.53517 72.9908V73.8498H3.22136V72.9024C3.22136 72.2707 2.94344 72.0307 2.50129 72.0307C2.05914 72.0307 1.78122 72.2707 1.78122 72.9024V77.6775C1.78122 78.3092 2.05914 78.5366 2.50129 78.5366C2.94344 78.5366 3.22136 78.3092 3.22136 77.6775V76.4143ZM11.3662 70.8685L12.7811 79.7114H11.3789L11.1389 78.1071H9.43343L9.19341 79.7114H7.9175L9.33237 70.8685H11.3662ZM10.2798 72.4349L9.61029 76.9069H10.9494L10.2798 72.4349ZM19.3025 79.7114L17.5718 73.3066V79.7114H16.3212V70.8685H18.0645L19.492 76.1616V70.8685H20.73V79.7114H19.3025ZM27.5992 79.7114L25.8685 73.3066V79.7114H24.6178V70.8685H26.3612L27.7887 76.1616V70.8685H29.0267V79.7114H27.5992ZM36.0095 70.8685L37.4244 79.7114H36.0222L35.7822 78.1071H34.0767L33.8367 79.7114H32.5608L33.9757 70.8685H36.0095ZM34.9231 72.4349L34.2536 76.9069H35.5927L34.9231 72.4349ZM43.0741 70.8685C44.5143 70.8685 45.1333 71.538 45.1333 72.9024V73.2182C45.1333 74.1277 44.8554 74.7088 44.2364 74.9994C44.9817 75.29 45.2722 75.9595 45.2722 76.8943V77.6144C45.2722 78.9787 44.5522 79.7114 43.1626 79.7114H40.9771V70.8685H43.0741ZM42.9857 75.7321H42.3667V78.4481H43.1626C43.63 78.4481 43.8826 78.2334 43.8826 77.5765V76.8059C43.8826 75.9848 43.6173 75.7321 42.9857 75.7321ZM43.0362 72.1318H42.3667V74.4688H42.9099C43.4279 74.4688 43.7437 74.2414 43.7437 73.534V73.0413C43.7437 72.4097 43.5289 72.1318 43.0362 72.1318ZM49.0147 79.7114V70.8685H50.4043V79.7114H49.0147ZM54.149 72.9908C54.149 71.5759 54.8438 70.7674 56.1956 70.7674C57.5473 70.7674 58.2421 71.5759 58.2421 72.9908V73.2687H56.9283V72.9024C56.9283 72.2707 56.6756 72.0307 56.2334 72.0307C55.7913 72.0307 55.5386 72.2707 55.5386 72.9024C55.5386 74.7215 58.2547 75.0626 58.2547 77.5891C58.2547 79.004 57.5473 79.8125 56.1829 79.8125C54.8186 79.8125 54.1111 79.004 54.1111 77.5891V77.0459H55.425V77.6775C55.425 78.3092 55.7029 78.5366 56.145 78.5366C56.5872 78.5366 56.8651 78.3092 56.8651 77.6775C56.8651 75.8584 54.149 75.5173 54.149 72.9908ZM66.8361 76.8943C66.8361 75.9974 67.114 75.3405 67.7962 75.0373C67.1393 74.7594 66.8361 74.1656 66.8361 73.2182V73.0539C66.8361 71.6391 67.5183 70.8685 68.9079 70.8685H70.4996V72.1318H68.9331C68.491 72.1318 68.2257 72.3591 68.2257 72.9908V73.534C68.2257 74.2414 68.5415 74.4688 69.0595 74.4688H69.6658V73.4835H71.0554V74.4688H71.4218V75.7321H71.0554V78.6376C71.0554 79.0672 71.0681 79.383 71.207 79.7114H69.7922C69.729 79.5346 69.6911 79.4082 69.6658 79.0166C69.4258 79.5346 68.9963 79.8125 68.3773 79.8125C67.354 79.8125 66.8361 79.0924 66.8361 77.7912V76.8943ZM68.2257 77.6775C68.2257 78.3092 68.5036 78.5492 68.9458 78.5492C69.3627 78.5492 69.6406 78.3345 69.6658 77.7786V75.7321H69.1353C68.5036 75.7321 68.2257 76.0353 68.2257 76.8564V77.6775ZM83.4146 79.7114L82.9092 74.9994L82.4039 79.7114H80.4964L79.511 70.8685H80.8627L81.6081 77.8418L82.2776 70.8685H83.6167L84.3115 77.8923L85.0316 70.8685H86.2443L85.2589 79.7114H83.4146ZM91.2403 72.1318V74.5951H93.1478V75.8584H91.2403V78.4481H93.6405V79.7114H89.8507V70.8685H93.6405V72.1318H91.2403ZM97.4071 79.7114V70.8685H98.7967V78.4481H101.083V79.7114H97.4071ZM104.594 79.7114V70.8685H105.983V78.4481H108.27V79.7114H104.594ZM114.749 79.7114L113.018 73.3066V79.7114H111.767V70.8685H113.511L114.938 76.1616V70.8685H116.176V79.7114H114.749ZM121.466 72.1318V74.5951H123.374V75.8584H121.466V78.4481H123.866V79.7114H120.077V70.8685H123.866V72.1318H121.466ZM127.456 72.9908C127.456 71.5759 128.151 70.7674 129.503 70.7674C130.854 70.7674 131.549 71.5759 131.549 72.9908V73.2687H130.235V72.9024C130.235 72.2707 129.983 72.0307 129.541 72.0307C129.098 72.0307 128.846 72.2707 128.846 72.9024C128.846 74.7215 131.562 75.0626 131.562 77.5891C131.562 79.004 130.854 79.8125 129.49 79.8125C128.126 79.8125 127.418 79.004 127.418 77.5891V77.0459H128.732V77.6775C128.732 78.3092 129.01 78.5366 129.452 78.5366C129.894 78.5366 130.172 78.3092 130.172 77.6775C130.172 75.8584 127.456 75.5173 127.456 72.9908Z" fill="#1C2120"/>
</svg>
