<svg width="32" height="28" viewBox="0 0 32 28" fill="none" xmlns="http://www.w3.org/2000/svg">
<path d="M15 2H3C1.35004 2 0.0150146 3.34985 0.0150146 5L0 23C0 24.6501 1.35004 26 3 26H15V15.5L3 8V5L15 12.5V2Z" fill="#FAF6F5"/>
<path d="M14.25 2V1.25L29.985 5L30.735 4.99937L30.735 4.99964C30.735 4.99976 30.735 4.99988 30.735 5L30.75 22.9994V23C30.75 25.0644 29.0641 26.75 27 26.75H15H14.25V26V15.5V15.0843L14.6025 14.864L26.25 7.58431V6.35319L15.3975 13.136L14.25 13.8532V12.5V2Z" stroke="#FAF6F5" stroke-width="1.5"/>
</svg>
