<svg width="25" height="42" viewBox="0 0 25 42" fill="none" xmlns="http://www.w3.org/2000/svg">
<path d="M9.13552 4.9839C10.1071 4.57964 11.1484 4.37159 12.2 4.37159C14.3237 4.37159 16.3607 5.21898 17.8629 6.7279C19.3651 8.23689 20.2094 10.2839 20.2094 12.4187C20.2094 14.5534 19.3651 16.6004 17.8629 18.1094C16.3607 19.6183 14.3237 20.4657 12.2 20.4657C11.1484 20.4657 10.1071 20.2577 9.13552 19.8534C8.16391 19.4491 7.28096 18.8566 6.53714 18.1094C5.79332 17.3622 5.2032 16.4751 4.80055 15.4987C4.3979 14.5223 4.19064 13.4756 4.19064 12.4187C4.19064 11.3617 4.3979 10.315 4.80055 9.3386C5.2032 8.36216 5.79332 7.47506 6.53714 6.7279C7.28096 5.98074 8.16391 5.38816 9.13552 4.9839ZM2.46313 6.10466C1.25321 7.98639 0.609613 10.1786 0.609368 12.4184L0.609368 12.4186C0.60774 15.2547 1.63705 17.9911 3.50418 20.119C5.29534 22.1603 7.73943 23.5044 10.4094 23.9237V39.138C10.4094 39.614 10.5976 40.0709 10.9332 40.408C11.2689 40.7452 11.7245 40.9349 12.2 40.9349C12.6755 40.9349 13.1311 40.7452 13.4668 40.408C13.8024 40.0709 13.9906 39.614 13.9906 39.138V23.9208C16.0767 23.5933 18.0363 22.6991 19.656 21.3323C21.3638 19.8912 22.6212 17.9859 23.2775 15.8452C23.9337 13.7045 23.9611 11.419 23.3564 9.26307C22.7516 7.1071 21.5403 5.17195 19.8675 3.68996C18.1948 2.20796 16.1316 1.2421 13.9256 0.908535C11.7195 0.574965 9.46457 0.887897 7.43132 1.80968C5.39809 2.73147 3.67309 4.22286 2.46313 6.10466Z" fill="#5BD6D2" stroke="#5BD6D2" stroke-width="0.781268" stroke-linecap="round"/>
</svg>
