<svg width="19" height="19" viewBox="0 0 19 19" fill="none" xmlns="http://www.w3.org/2000/svg">
<path d="M9 1H5.5735L6.90256 6.10189L2.95824 2.54343L0.0857459 7.73107L4.75891 9.10301L0 10.6464L3.21548 16.1771L6.85969 12.4471L5.65924 17.4632H9V1Z" fill="white"/>
<path d="M7.5 1V0.5H8H11.4265H12.0734L11.9104 1.12605L11.0022 4.61225L13.7068 2.17218L14.1742 1.7505L14.4792 2.30122L17.3517 7.48886L17.6541 8.03498L17.0551 8.21082L13.9351 9.12678L17.1543 10.1708L17.7437 10.362L17.4323 10.8977L14.2168 16.4284L13.8863 16.9967L13.4269 16.5265L11.048 14.0916L11.827 17.3469L11.9745 17.9632H11.3408H8H7.5V17.4632V1Z" stroke="white"/>
</svg>
