<svg width="47" height="37" viewBox="0 0 47 37" fill="none" xmlns="http://www.w3.org/2000/svg">
<path d="M39.0889 1.82988C39.8707 1.08557 40.9111 0.674081 41.9905 0.682248C43.07 0.690416 44.104 1.1176 44.8745 1.87366C45.6449 2.62972 46.0915 3.65551 46.1201 4.7346C46.1486 5.81368 45.7568 6.86165 45.0274 7.65736L22.883 35.3518C22.5022 35.7619 22.0426 36.091 21.5317 36.3195C21.0208 36.548 20.4691 36.6711 19.9096 36.6814C19.35 36.6918 18.7941 36.5892 18.2751 36.3798C17.7561 36.1704 17.2847 35.8585 16.889 35.4628L2.20373 20.7775C1.79477 20.3964 1.46676 19.9369 1.23925 19.4263C1.01175 18.9157 0.889415 18.3645 0.879554 17.8056C0.869693 17.2467 0.972506 16.6916 1.18186 16.1733C1.39121 15.655 1.70281 15.1841 2.09807 14.7889C2.49333 14.3936 2.96416 14.082 3.48246 13.8727C4.00077 13.6633 4.55593 13.5605 5.11482 13.5704C5.67372 13.5802 6.22491 13.7026 6.73551 13.9301C7.2461 14.1576 7.70564 14.4856 8.08671 14.8945L19.7084 26.5106L38.9835 1.95198L39.0889 1.82988Z" fill="#1C2120"/>
</svg>
