<svg width="22" height="22" viewBox="0 0 22 22" fill="none" xmlns="http://www.w3.org/2000/svg">
<path d="M10.946 5.40698C7.84058 5.40698 5.33569 7.91187 5.33569 11.0173C5.33569 14.1228 7.84058 16.6277 10.946 16.6277C14.0515 16.6277 16.5564 14.1228 16.5564 11.0173C16.5564 7.91187 14.0515 5.40698 10.946 5.40698ZM10.946 14.6648C8.93921 14.6648 7.29858 13.0291 7.29858 11.0173C7.29858 9.00562 8.93433 7.36987 10.946 7.36987C12.9578 7.36987 14.5935 9.00562 14.5935 11.0173C14.5935 13.0291 12.9529 14.6648 10.946 14.6648ZM18.0945 5.17749C18.0945 5.90503 17.5085 6.48608 16.7859 6.48608C16.0584 6.48608 15.4773 5.90015 15.4773 5.17749C15.4773 4.45483 16.0632 3.8689 16.7859 3.8689C17.5085 3.8689 18.0945 4.45483 18.0945 5.17749ZM21.8103 6.50562C21.7273 4.75269 21.3269 3.19995 20.0427 1.92065C18.7634 0.641357 17.2107 0.240967 15.4578 0.153076C13.6511 0.0505371 8.23608 0.0505371 6.42944 0.153076C4.6814 0.236084 3.12866 0.636475 1.84448 1.91577C0.560303 3.19507 0.164795 4.7478 0.0769043 6.50073C-0.0256348 8.30737 -0.0256348 13.7224 0.0769043 15.5291C0.159912 17.282 0.560303 18.8347 1.84448 20.114C3.12866 21.3933 4.67651 21.7937 6.42944 21.8816C8.23608 21.9841 13.6511 21.9841 15.4578 21.8816C17.2107 21.7986 18.7634 21.3982 20.0427 20.114C21.322 18.8347 21.7224 17.282 21.8103 15.5291C21.9128 13.7224 21.9128 8.31226 21.8103 6.50562ZM19.4763 17.4675C19.0955 18.4246 18.3582 19.1619 17.3962 19.5476C15.9558 20.1189 12.5378 19.9871 10.946 19.9871C9.35425 19.9871 5.9314 20.114 4.49585 19.5476C3.53882 19.1667 2.80151 18.4294 2.41577 17.4675C1.84448 16.0271 1.97632 12.6091 1.97632 11.0173C1.97632 9.42554 1.84937 6.00269 2.41577 4.56714C2.79663 3.61011 3.53394 2.8728 4.49585 2.48706C5.93628 1.91577 9.35425 2.04761 10.946 2.04761C12.5378 2.04761 15.9607 1.92065 17.3962 2.48706C18.3533 2.86792 19.0906 3.60522 19.4763 4.56714C20.0476 6.00757 19.9158 9.42554 19.9158 11.0173C19.9158 12.6091 20.0476 16.032 19.4763 17.4675Z" fill="#1C2120"/>
</svg>
