<svg width="50" height="51" viewBox="0 0 50 51" fill="none" xmlns="http://www.w3.org/2000/svg">
<path d="M37.7926 34.5666L31.4269 29.3857L31.411 29.3715C31.0783 29.1099 30.6855 28.9354 30.2683 28.8638C29.8511 28.7923 29.4226 28.826 29.0217 28.9618C28.9746 28.9775 28.9285 28.9959 28.8835 29.017L24.2909 31.2024C22.2307 29.4173 20.4357 26.3352 19.9116 23.6892L24.1204 20.749C24.1614 20.7188 24.2009 20.6883 24.2396 20.6542C24.5523 20.3747 24.791 20.0221 24.9345 19.6281C25.078 19.234 25.1219 18.8105 25.0622 18.3953C25.0632 18.3891 25.0649 18.3829 25.0671 18.3769L23.7576 10.2573C23.6772 9.71434 23.4232 9.21194 23.0338 8.82512C22.6443 8.4383 22.1402 8.18782 21.5966 8.11106C19.442 7.82725 17.2576 8.33748 15.4517 9.54647C13.6457 10.7554 12.3415 12.5805 11.7828 14.6807C8.51497 26.8764 15.7787 39.4576 27.9744 42.7254C30.0726 43.2917 32.3052 43.0748 34.2552 42.1152C36.2052 41.1557 37.7393 39.5191 38.5708 37.5112C38.7761 37.0021 38.8113 36.4403 38.671 35.9096C38.5307 35.3789 38.2226 34.9078 37.7926 34.5666ZM28.6329 40.2678C23.4219 38.8654 18.9799 35.4532 16.2817 30.7797C13.5835 26.1063 12.8494 20.5533 14.2404 15.3392C14.6365 13.8378 15.5656 12.5319 16.8542 11.6653C18.1427 10.7988 19.7026 10.431 21.2426 10.6304C21.2404 10.6364 21.2387 10.6426 21.2377 10.6489L22.5289 18.7323L18.3358 21.6816C18.2936 21.71 18.2538 21.7417 18.2165 21.7764C17.8904 22.0692 17.6453 22.4412 17.5052 22.8565C17.3651 23.2718 17.3346 23.7162 17.4168 24.1467C18.0458 27.3658 20.1508 30.9804 22.6552 33.1413C22.9903 33.4267 23.3936 33.6203 23.8258 33.7033C24.2581 33.7862 24.7044 33.7556 25.1213 33.6144C25.1683 33.5985 25.2141 33.5794 25.2584 33.5573L29.8456 31.3737L36.1979 36.5429L36.2148 36.5474C35.6192 37.9832 34.521 39.1528 33.1255 39.8375C31.7301 40.5223 30.133 40.6753 28.6329 40.2678Z" fill="white"/>
</svg>
