<svg width="13" height="17" viewBox="0 0 13 17" fill="none" xmlns="http://www.w3.org/2000/svg">
<path d="M1.70354 16.4691C-0.721622 15.5154 -0.190265 12.8859 1.03594 11.2237C2.24852 9.52061 3.92434 8.3489 5.61378 7.21807C6.81945 6.45863 7.89577 5.51109 8.80192 4.41142C9.1834 3.96181 9.96 3.13071 9.16978 2.96722C8.36593 2.80372 6.97623 3.59395 6.26776 3.89369C5.02793 4.41142 3.80172 5.0109 2.65726 5.71937L1.28118 3.4032C3.40661 1.99988 6.13151 0.760047 8.66567 0.392185C10.1099 0.174193 11.6358 0.473932 12.1263 2.04075C12.5623 3.38958 11.8674 4.75203 11.0772 5.81474C9.21065 8.30803 6.30863 9.50699 4.14233 11.6597C3.6791 12.1093 3.12049 12.6406 2.848 13.2674C2.56189 13.8668 2.63001 13.9077 3.27036 13.9077C4.9598 13.9077 7.0716 12.5861 8.44768 11.7142L9.82376 14.0303C7.7392 15.311 4.25133 17.3138 1.70354 16.4691Z" fill="white"/>
</svg>
