<svg width="24" height="21" viewBox="0 0 24 21" fill="none" xmlns="http://www.w3.org/2000/svg">
<path fill-rule="evenodd" clip-rule="evenodd" d="M21.3013 0.201867C21.5935 0.0788973 21.9133 0.0364859 22.2274 0.0790466C22.5415 0.121607 22.8385 0.247584 23.0874 0.443865C23.3363 0.640147 23.5281 0.899556 23.6427 1.19509C23.7573 1.49063 23.7906 1.81149 23.7392 2.12428L21.0577 18.3891C20.7976 19.958 19.0762 20.8578 17.6374 20.0763C16.4338 19.4225 14.6462 18.4151 13.0382 17.3641C12.2343 16.838 9.77155 15.1532 10.0742 13.9543C10.3343 12.9293 14.4724 9.07737 16.837 6.78726C17.7651 5.88753 17.3418 5.3685 16.2458 6.19611C13.5242 8.25094 9.15439 11.3758 7.70962 12.2554C6.43511 13.031 5.77066 13.1634 4.97615 13.031C3.52666 12.7898 2.18239 12.4162 1.08522 11.961C-0.397384 11.3462 -0.325264 9.30791 1.08403 8.7144L21.3013 0.201867Z" fill="#1C2120"/>
</svg>
