<svg width="25" height="21" viewBox="0 0 25 21" fill="none" xmlns="http://www.w3.org/2000/svg">
<path d="M22.4302 5.13643C22.446 5.3585 22.446 5.58062 22.446 5.80269C22.446 12.5761 17.2906 20.3807 7.86802 20.3807C4.96509 20.3807 2.26841 19.5399 0 18.0806C0.412451 18.1282 0.808984 18.144 1.2373 18.144C3.63257 18.144 5.83755 17.3351 7.59834 15.955C5.3458 15.9074 3.45811 14.4321 2.80771 12.4017C3.125 12.4492 3.44224 12.481 3.77539 12.481C4.2354 12.481 4.69546 12.4175 5.12373 12.3065C2.77603 11.8306 1.01519 9.76841 1.01519 7.27793V7.2145C1.69727 7.59521 2.49048 7.83315 3.33115 7.86484C1.95107 6.94478 1.04692 5.37437 1.04692 3.59771C1.04692 2.64595 1.30068 1.77349 1.74487 1.01206C4.26709 4.12119 8.05835 6.15161 12.3096 6.37373C12.2303 5.99302 12.1827 5.59648 12.1827 5.1999C12.1827 2.37627 14.4669 0.0761719 17.3064 0.0761719C18.7816 0.0761719 20.1141 0.694824 21.05 1.69419C22.208 1.47212 23.3184 1.0438 24.302 0.456885C23.9212 1.64663 23.1122 2.646 22.0494 3.28047C23.0805 3.16948 24.0799 2.88389 24.9999 2.48735C24.302 3.50254 23.4295 4.40669 22.4302 5.13643Z" fill="#1C2120"/>
</svg>
