<svg width="177" height="177" viewBox="0 0 177 177" fill="none" xmlns="http://www.w3.org/2000/svg">
<path d="M93.6084 10.9578V34.0774C102.973 34.0912 112.02 36.4778 120.332 41.158C142.94 53.8882 153.387 81.5319 144.964 106.341C139.46 122.552 124.997 136.391 108.842 140.905C103.711 142.339 98.5984 143.017 93.6084 143.018V166.041C93.7171 166.038 93.8231 166.028 93.9278 166.01C94.5123 165.91 95.0584 165.584 95.8254 165.127L95.826 165.126L95.8314 165.123L95.8331 165.122C96.0015 165.022 96.1806 164.915 96.3731 164.803C97.9776 163.869 101.804 161.402 104.878 159.32L110.467 155.535H132.82L142.03 137.406L150.974 132.819C155.893 130.297 160.153 127.792 160.441 127.252C160.729 126.713 160.693 121.844 160.361 116.433L159.757 106.593L165.449 97.9162C168.87 92.7014 171.029 88.8092 170.86 88.161C170.705 87.5681 168.149 83.348 165.181 78.7839L159.783 70.4843L160.445 60.4852C161.027 51.7054 160.991 50.3679 160.149 49.5238C159.62 48.995 155.351 46.5976 150.661 44.1964L142.134 39.8307L137.688 31.1311C135.242 26.3462 132.727 22.0987 132.099 21.6919C131.245 21.1389 128.501 21.0941 121.198 21.514L111.437 22.0744L102.892 16.4895C98.5825 13.6731 94.635 11.3273 93.6084 10.9578Z" fill="#5BD6D2"/>
<path d="M93.6084 135.682C94.2145 135.668 94.8399 135.646 95.4872 135.619C108.929 135.05 117.598 131.247 127.114 121.743C131.356 117.506 133.046 115.143 135.664 109.782C139.574 101.777 140.696 96.8793 140.657 87.9842C140.577 69.8797 130.521 54.0366 114.106 46.1512C107.11 42.7912 100.518 41.1672 93.6084 41.1581V64.3883H99.3997V82.385H117.364V94.5642H99.3997V112.561H93.6084V135.682Z" fill="#5BD6D2"/>
<path d="M93.6082 176.155C93.4721 176.153 93.34 176.141 93.2096 176.118C92.549 176.005 91.9318 175.637 91.0648 175.12L91.0636 175.119C90.871 175.005 90.6661 174.882 90.4456 174.754C88.6319 173.698 84.3061 170.91 80.8317 168.556L74.5146 164.278H49.2464L38.8366 143.785L28.7264 138.6C23.166 135.749 18.3503 132.917 18.0246 132.308C17.699 131.698 17.7396 126.194 18.1152 120.078L18.7981 108.956L12.3638 99.147C8.49708 93.2524 6.05661 88.8526 6.24751 88.1199C6.42298 87.4498 9.31127 82.6795 12.6671 77.5203L18.7686 68.1386L18.0197 56.8359C17.362 46.9114 17.4027 45.3995 18.3552 44.4453C18.9525 43.8477 23.7781 41.1376 29.0795 38.4234L38.7179 33.4885L43.7442 23.6547C46.509 18.2459 49.3516 13.4447 50.0613 12.9848C51.0271 12.3597 54.1288 12.3091 62.3845 12.7837L73.4176 13.4173L83.0771 7.10422C88.0023 3.88519 92.5095 1.21007 93.6082 0.838135V10.9577C92.5816 11.3272 88.6341 13.673 84.3249 16.4895L75.7795 22.0744L66.0189 21.5139C58.7154 21.094 55.9715 21.1388 55.1171 21.6918C54.4893 22.0986 51.9745 26.3461 49.5286 31.131L45.0821 39.8307L36.5553 44.1963C31.8653 46.5975 27.5964 48.9949 27.068 49.5237C26.2254 50.3678 26.1893 51.7053 26.7712 60.4851L27.4337 70.4842L22.0359 78.7838C19.0672 83.348 16.512 87.5681 16.3568 88.1609C16.1879 88.8091 18.3469 92.7013 21.7676 97.9161L27.4598 106.593L26.8556 116.433C26.5234 121.844 26.4874 126.713 26.7755 127.252C27.0636 127.791 31.3239 130.297 36.243 132.819L45.187 137.406L54.3962 155.535H76.75L82.3385 159.32C85.4121 161.402 89.239 163.869 90.8435 164.803C91.036 164.915 91.2151 165.021 91.3835 165.122L91.3852 165.123L91.3906 165.126L91.3912 165.126C92.1582 165.584 92.7042 165.909 93.2887 166.01C93.3935 166.028 93.4995 166.038 93.6082 166.041V176.155Z" fill="#5BD6D2"/>
<path d="M93.6082 143.017C88.6181 143.017 83.5059 142.339 78.3751 140.905C62.2195 136.391 47.7562 122.552 42.2527 106.341C33.8299 81.5318 44.2763 53.8881 66.885 41.1579C75.1969 36.4777 84.2435 34.0911 93.6082 34.0774V41.1581C86.699 41.1671 80.1065 42.7911 73.1108 46.1511C56.6956 54.0365 46.6395 69.8796 46.5595 87.9841C46.5209 96.8792 47.6425 101.777 51.5528 109.782C54.1709 115.143 55.8603 117.506 60.1026 121.743C69.6182 131.247 78.2873 135.05 91.7293 135.619C92.3767 135.646 93.0021 135.667 93.6082 135.682V143.017Z" fill="#5BD6D2"/>
<path d="M93.6082 112.561H87.8169V94.5641H69.8528V82.3849H87.8169V64.3882H93.6082V112.561Z" fill="#5BD6D2"/>
</svg>
