<svg width="176" height="177" viewBox="0 0 176 177" fill="none" xmlns="http://www.w3.org/2000/svg">
<path d="M88.477 0.839379C82.1728 0.791878 75.9067 2.10508 70.116 4.7186C62.428 8.18847 55.9044 13.803 51.3281 20.8885C46.7518 27.974 44.3172 36.2294 44.3164 44.6643C44.3101 55.3444 48.2035 65.6484 55.2654 73.6605C62.3272 81.6727 72.0715 86.8307 82.6679 88.1658V148.761C82.6679 150.214 83.2451 151.608 84.2726 152.635C85.3 153.663 86.6936 154.24 88.1466 154.24C88.2572 154.24 88.3673 154.236 88.477 154.23V77.5353C88.3669 77.5364 88.2568 77.5369 88.1466 77.5369C83.8298 77.5369 79.5551 76.6867 75.5668 75.0346C71.5785 73.3826 67.9547 70.9613 64.9022 67.9088C61.8497 64.8562 59.4283 61.2324 57.7763 57.2441C56.1243 53.2558 55.274 48.9812 55.274 44.6643C55.274 40.3474 56.1243 36.0728 57.7763 32.0845C59.4283 28.0962 61.8497 24.4723 64.9022 21.4198C67.9547 18.3673 71.5785 15.9459 75.5668 14.2939C79.5551 12.6419 83.8298 11.7916 88.1466 11.7916C88.2568 11.7916 88.3669 11.7922 88.477 11.7933V0.839379Z" fill="#5BD6D2"/>
<path d="M88.477 165.197C88.367 165.197 88.2569 165.197 88.1466 165.197C74.9538 165.197 63.2401 163.4 55.011 160.661C50.8691 159.291 47.9105 157.757 46.1025 156.333C45.481 155.882 44.9432 155.326 44.5137 154.689L44.3384 154.327L44.3164 154.24V154.207C44.4641 153.844 44.6757 153.51 44.941 153.221C46.1112 152.022 47.4837 151.039 48.9953 150.317C53.1044 148.147 59.3283 146.208 67.1301 144.915C68.5625 144.676 69.8414 143.878 70.6859 142.697C71.5304 141.515 71.8712 140.047 71.6336 138.614C71.3947 137.182 70.5969 135.903 69.4154 135.058C68.234 134.214 66.7657 133.873 65.333 134.111C56.8957 135.502 49.4227 137.705 43.8891 140.62C38.8377 143.282 33.3589 147.676 33.3589 154.24C33.3589 158.908 36.2078 162.48 39.3198 164.945C42.4975 167.444 46.7709 169.471 51.5484 171.06C61.1692 174.27 74.11 176.155 88.1466 176.155C88.2568 176.155 88.367 176.155 88.477 176.155V165.197Z" fill="#5BD6D2"/>
<path d="M88.4769 77.5351L88.6413 77.5363L88.8074 77.5368C93.1242 77.5368 97.3987 76.6864 101.387 75.0345C105.375 73.3825 108.999 70.9611 112.052 67.9086C115.104 64.8562 117.526 61.2322 119.178 57.2439C120.83 53.2556 121.68 48.9811 121.68 44.6641C121.68 40.3473 120.83 36.0725 119.178 32.0842C117.526 28.096 115.104 24.4722 112.052 21.4197C108.999 18.3671 105.375 15.9457 101.387 14.2937C97.3987 12.6417 93.1242 11.7915 88.8074 11.7915L88.6384 11.792L88.4769 11.793V77.5351Z" fill="#5BD6D2"/>
<path d="M94.324 77.0708C92.5058 77.3803 90.6604 77.537 88.8073 77.537C88.6971 77.537 88.587 77.5365 88.4769 77.5354V154.23C88.5866 154.237 88.6968 154.24 88.8073 154.24C90.2603 154.24 91.6539 153.663 92.6814 152.635C93.7088 151.608 94.2861 150.214 94.2861 148.761V88.1658C94.2987 88.1643 94.3114 88.1627 94.324 88.161V77.0708Z" fill="#5BD6D2"/>
<path d="M87.959 165.197C87.8488 165.197 87.7387 165.197 87.6287 165.197V176.155C87.7387 176.155 87.8488 176.155 87.959 176.155C101.996 176.155 114.937 174.27 124.557 171.06C129.335 169.471 133.608 167.444 136.786 164.945C139.898 162.48 142.747 158.908 142.747 154.24C142.747 147.676 137.268 143.282 132.217 140.62C126.683 137.705 119.21 135.502 110.773 134.111C109.34 133.873 107.872 134.214 106.69 135.059C105.509 135.903 104.711 137.182 104.472 138.614C104.234 140.047 104.575 141.515 105.42 142.697C106.264 143.878 107.543 144.676 108.976 144.915C116.777 146.208 123.001 148.147 127.11 150.317C128.622 151.039 129.994 152.022 131.165 153.221C131.43 153.51 131.642 153.844 131.789 154.207V154.24L131.767 154.328L131.592 154.689C131.162 155.326 130.625 155.882 130.003 156.333C128.195 157.757 125.237 159.291 121.095 160.661C112.866 163.4 101.152 165.197 87.959 165.197Z" fill="#5BD6D2"/>
</svg>
